<?xml version="1.0" encoding="UTF-8"?>
<!-- Generator: Adobe Illustrator 16.0.0, SVG Export Plug-In . SVG Version: 6.00 Build 0)  -->
<svg xmlns="http://www.w3.org/2000/svg" xmlns:xlink="http://www.w3.org/1999/xlink" version="1.1" id="Layer_1" x="0px" y="0px" width="19.376px" height="23.149px" viewBox="0 0 19.376 23.149" xml:space="preserve">
<g>
	<g>
		<defs>
			<circle id="SVGID_1_" cx="9.56" cy="5.146" r="4.146"></circle>
		</defs>
		<clipPath id="SVGID_2_">
			<use xlink:href="#SVGID_1_" overflow="visible"></use>
		</clipPath>
		<path clip-path="url(#SVGID_2_)" d="M9.559,2c1.738,0,3.146,1.409,3.146,3.146h2C14.706,2.305,12.402,0,9.559,0V2z M6.414,5.146    C6.414,3.409,7.822,2,9.559,2V0C6.717,0,4.414,2.305,4.414,5.146H6.414z M9.559,8.292c-1.737,0-3.146-1.408-3.146-3.146h-2    c0,2.842,2.304,5.146,5.146,5.146V8.292z M12.706,5.146c0,1.737-1.408,3.146-3.146,3.146v2c2.843,0,5.146-2.304,5.146-5.146    H12.706z"></path>
	</g>
	<g>
		<defs>
			<path id="SVGID_3_" d="M16.099,11.886C13.038,12,13.584,12,9.995,12s-3.304,0-7.103,0c0.983-3.153,2.934-3.041,6.523-3.041     S15.138,8.958,16.099,11.886z"></path>
		</defs>
		<clipPath id="SVGID_4_">
			<use xlink:href="#SVGID_3_" overflow="visible"></use>
		</clipPath>
		<path clip-path="url(#SVGID_4_)" d="M9.416,9.959c1.857,0,3.099,0.012,4.013,0.314c0.421,0.141,0.741,0.335,1.001,0.609    c0.266,0.279,0.514,0.688,0.72,1.315l1.9-0.624c-0.274-0.835-0.652-1.525-1.17-2.069c-0.521-0.549-1.14-0.903-1.821-1.129    c-1.29-0.429-2.91-0.417-4.643-0.417V9.959z M3.847,12.299c0.219-0.701,0.469-1.149,0.729-1.447    c0.25-0.286,0.544-0.477,0.928-0.609c0.401-0.139,0.906-0.216,1.571-0.253c0.668-0.037,1.426-0.03,2.341-0.03v-2    c-0.88,0-1.712-0.008-2.45,0.033C6.224,8.033,5.507,8.125,4.85,8.353C4.174,8.586,3.572,8.959,3.068,9.538    c-0.495,0.568-0.857,1.289-1.131,2.165L3.847,12.299z M9.995,11.001c-0.007,0-0.014,0-0.021,0c-0.008,0-0.015,0-0.021,0    s-0.014,0-0.021,0s-0.014,0-0.021,0s-0.014,0-0.021,0c-0.006,0-0.014,0-0.02,0c-0.008,0-0.014,0-0.021,0c-0.006,0-0.013,0-0.02,0    s-0.014,0-0.021,0s-0.014,0-0.021,0s-0.014,0-0.02,0c-0.007,0-0.014,0-0.021,0s-0.014,0-0.02,0c-0.007,0-0.014,0-0.021,0    c-0.006,0-0.013,0-0.02,0s-0.013,0-0.02,0s-0.014,0-0.02,0c-0.007,0-0.014,0-0.02,0c-0.007,0-0.014,0-0.02,0    c-0.007,0-0.013,0-0.02,0s-0.013,0-0.02,0c-0.006,0-0.013,0-0.019,0c-0.007,0-0.013,0-0.02,0s-0.013,0-0.02,0    c-0.006,0-0.013,0-0.019,0s-0.013,0-0.019,0c-0.007,0-0.013,0-0.02,0c-0.006,0-0.012,0-0.019,0c-0.006,0-0.012,0-0.019,0    c-0.006,0-0.013,0-0.019,0s-0.012,0-0.019,0c-0.006,0-0.012,0-0.019,0c-0.006,0-0.012,0-0.018,0c-0.007,0-0.013,0-0.019,0    s-0.013,0-0.019,0s-0.012,0-0.018,0s-0.013,0-0.019,0s-0.012,0-0.018,0s-0.012,0-0.019,0c-0.006,0-0.012,0-0.018,0    s-0.012,0-0.018,0s-0.012,0-0.018,0s-0.012,0-0.018,0s-0.012,0-0.018,0s-0.012,0-0.018,0s-0.012,0-0.018,0    c-0.005,0-0.011,0-0.017,0s-0.012,0-0.018,0s-0.012,0-0.017,0c-0.006,0-0.012,0-0.018,0s-0.012,0-0.017,0    c-0.006,0-0.012,0-0.018,0c-0.005,0-0.011,0-0.017,0s-0.011,0-0.017,0s-0.012,0-0.017,0c-0.006,0-0.012,0-0.017,0    c-0.006,0-0.012,0-0.017,0c-0.006,0-0.012,0-0.017,0c-0.006,0-0.011,0-0.017,0s-0.011,0-0.017,0c-0.005,0-0.011,0-0.017,0    c-0.005,0-0.011,0-0.016,0c-0.006,0-0.011,0-0.017,0c-0.005,0-0.011,0-0.016,0c-0.006,0-0.011,0-0.017,0c-0.005,0-0.011,0-0.016,0    c-0.006,0-0.011,0-0.016,0c-0.006,0-0.011,0-0.017,0c-0.005,0-0.011,0-0.016,0s-0.011,0-0.016,0s-0.011,0-0.016,0    s-0.011,0-0.016,0s-0.011,0-0.016,0s-0.01,0-0.016,0c-0.005,0-0.01,0-0.015,0c-0.006,0-0.011,0-0.016,0c-0.006,0-0.011,0-0.016,0    s-0.01,0-0.016,0c-0.005,0-0.01,0-0.015,0s-0.01,0-0.015,0c-0.006,0-0.011,0-0.016,0s-0.01,0-0.015,0s-0.01,0-0.016,0    c-0.005,0-0.01,0-0.015,0s-0.01,0-0.015,0s-0.01,0-0.015,0s-0.01,0-0.015,0s-0.01,0-0.015,0s-0.01,0-0.015,0s-0.01,0-0.015,0    s-0.01,0-0.015,0s-0.009,0-0.014,0s-0.01,0-0.015,0s-0.01,0-0.015,0s-0.009,0-0.014,0s-0.01,0-0.015,0s-0.01,0-0.014,0    c-0.005,0-0.01,0-0.015,0s-0.009,0-0.014,0s-0.01,0-0.014,0c-0.005,0-0.01,0-0.015,0c-0.004,0-0.009,0-0.014,0s-0.009,0-0.014,0    s-0.009,0-0.014,0s-0.009,0-0.014,0s-0.009,0-0.014,0s-0.009,0-0.014,0s-0.009,0-0.014,0s-0.009,0-0.014,0    c-0.004,0-0.009,0-0.014,0c-0.004,0-0.009,0-0.013,0c-0.005,0-0.009,0-0.014,0s-0.009,0-0.014,0c-0.004,0-0.009,0-0.013,0    c-0.005,0-0.009,0-0.014,0c-0.004,0-0.009,0-0.013,0c-0.005,0-0.009,0-0.014,0c-0.004,0-0.009,0-0.013,0s-0.009,0-0.013,0    c-0.005,0-0.009,0-0.014,0c-0.004,0-0.008,0-0.013,0c-0.004,0-0.009,0-0.013,0s-0.009,0-0.013,0s-0.009,0-0.013,0    c-0.005,0-0.009,0-0.013,0c-0.005,0-0.009,0-0.013,0c-0.005,0-0.009,0-0.013,0c-0.005,0-0.009,0-0.013,0c-0.005,0-0.009,0-0.013,0    s-0.009,0-0.013,0s-0.008,0-0.013,0c-0.004,0-0.008,0-0.012,0c-0.005,0-0.009,0-0.013,0s-0.009,0-0.013,0s-0.008,0-0.012,0    c-0.005,0-0.009,0-0.013,0s-0.008,0-0.013,0c-0.004,0-0.008,0-0.012,0s-0.008,0-0.012,0c-0.005,0-0.009,0-0.013,0    s-0.008,0-0.012,0s-0.009,0-0.013,0s-0.008,0-0.012,0s-0.008,0-0.012,0s-0.008,0-0.012,0s-0.008,0-0.012,0    c-0.005,0-0.009,0-0.013,0s-0.008,0-0.012,0s-0.008,0-0.012,0s-0.008,0-0.012,0s-0.008,0-0.012,0s-0.008,0-0.012,0    s-0.008,0-0.012,0s-0.008,0-0.012,0s-0.008,0-0.011,0c-0.004,0-0.008,0-0.012,0s-0.008,0-0.012,0s-0.008,0-0.012,0    s-0.008,0-0.012,0c-0.003,0-0.007,0-0.011,0s-0.008,0-0.012,0s-0.008,0-0.011,0c-0.004,0-0.008,0-0.012,0s-0.008,0-0.012,0    s-0.007,0-0.011,0s-0.008,0-0.012,0c-0.003,0-0.007,0-0.011,0s-0.008,0-0.012,0c-0.003,0-0.007,0-0.011,0s-0.008,0-0.011,0    c-0.004,0-0.008,0-0.012,0s-0.007,0-0.011,0s-0.008,0-0.011,0c-0.004,0-0.008,0-0.012,0c-0.003,0-0.007,0-0.011,0    s-0.007,0-0.011,0s-0.008,0-0.011,0c-0.004,0-0.008,0-0.011,0c-0.004,0-0.008,0-0.012,0c-0.003,0-0.007,0-0.011,0    c-0.003,0-0.007,0-0.011,0c-0.003,0-0.007,0-0.011,0c-0.003,0-0.007,0-0.011,0c-0.003,0-0.007,0-0.011,0c-0.003,0-0.007,0-0.011,0    c-0.003,0-0.007,0-0.011,0c-0.003,0-0.007,0-0.011,0c-0.003,0-0.007,0-0.011,0c-0.003,0-0.007,0-0.01,0c-0.004,0-0.008,0-0.011,0    c-0.004,0-0.008,0-0.011,0c-0.004,0-0.007,0-0.011,0s-0.007,0-0.011,0c-0.003,0-0.007,0-0.011,0c-0.003,0-0.007,0-0.01,0    c-0.004,0-0.008,0-0.011,0c-0.004,0-0.007,0-0.011,0c-0.003,0-0.007,0-0.01,0c-0.004,0-0.008,0-0.011,0c-0.004,0-0.007,0-0.011,0    c-0.003,0-0.007,0-0.011,0c-0.003,0-0.007,0-0.01,0c-0.004,0-0.007,0-0.011,0c-0.003,0-0.007,0-0.01,0c-0.004,0-0.007,0-0.011,0    c-0.003,0-0.007,0-0.011,0c-0.003,0-0.007,0-0.01,0c-0.004,0-0.007,0-0.011,0c-0.003,0-0.007,0-0.01,0c-0.004,0-0.007,0-0.011,0    c-0.003,0-0.007,0-0.01,0c-0.004,0-0.007,0-0.011,0c-0.003,0-0.007,0-0.01,0c-0.004,0-0.007,0-0.011,0c-0.003,0-0.006,0-0.01,0    c-0.003,0-0.007,0-0.01,0c-0.004,0-0.007,0-0.011,0c-0.003,0-0.007,0-0.01,0c-0.004,0-0.007,0-0.011,0c-0.003,0-0.006,0-0.01,0    c-0.003,0-0.007,0-0.01,0c-0.004,0-0.007,0-0.011,0c-0.003,0-0.007,0-0.01,0s-0.007,0-0.01,0c-0.004,0-0.007,0-0.011,0    c-0.003,0-0.007,0-0.01,0s-0.007,0-0.01,0c-0.004,0-0.007,0-0.011,0c-0.003,0-0.007,0-0.01,0s-0.007,0-0.01,0    c-0.004,0-0.007,0-0.011,0c-0.003,0-0.006,0-0.01,0c-0.003,0-0.007,0-0.01,0s-0.007,0-0.01,0c-0.004,0-0.007,0-0.011,0    c-0.003,0-0.006,0-0.01,0c-0.003,0-0.007,0-0.01,0s-0.007,0-0.01,0c-0.004,0-0.007,0-0.011,0c-0.003,0-0.006,0-0.01,0    c-0.003,0-0.007,0-0.01,0s-0.007,0-0.01,0c-0.004,0-0.007,0-0.01,0c-0.004,0-0.007,0-0.011,0c-0.003,0-0.007,0-0.01,0    s-0.007,0-0.01,0s-0.007,0-0.01,0c-0.004,0-0.007,0-0.011,0c-0.003,0-0.006,0-0.01,0c-0.003,0-0.007,0-0.01,0s-0.007,0-0.01,0    c-0.004,0-0.007,0-0.01,0c-0.004,0-0.007,0-0.011,0c-0.003,0-0.006,0-0.01,0c-0.003,0-0.007,0-0.01,0s-0.007,0-0.01,0    c-0.004,0-0.007,0-0.011,0c-0.003,0-0.006,0-0.01,0c-0.003,0-0.007,0-0.01,0s-0.007,0-0.01,0c-0.004,0-0.007,0-0.01,0    c-0.004,0-0.007,0-0.011,0c-0.003,0-0.007,0-0.01,0s-0.007,0-0.01,0c-0.004,0-0.007,0-0.011,0c-0.003,0-0.006,0-0.01,0    c-0.003,0-0.007,0-0.01,0s-0.007,0-0.01,0c-0.004,0-0.007,0-0.011,0c-0.003,0-0.006,0-0.01,0c-0.003,0-0.007,0-0.01,0    c-0.004,0-0.007,0-0.01,0c-0.004,0-0.007,0-0.011,0c-0.003,0-0.007,0-0.01,0c-0.004,0-0.007,0-0.01,0c-0.004,0-0.007,0-0.011,0    c-0.003,0-0.007,0-0.01,0c-0.004,0-0.007,0-0.011,0c-0.003,0-0.006,0-0.01,0c-0.003,0-0.007,0-0.01,0c-0.004,0-0.007,0-0.011,0    c-0.003,0-0.007,0-0.01,0s-0.007,0-0.01,0c-0.004,0-0.007,0-0.011,0c-0.003,0-0.007,0-0.01,0c-0.004,0-0.007,0-0.011,0    c-0.003,0-0.007,0-0.01,0c-0.004,0-0.007,0-0.011,0c-0.003,0-0.007,0-0.01,0c-0.004,0-0.007,0-0.011,0c-0.003,0-0.007,0-0.01,0    c-0.004,0-0.007,0-0.011,0c-0.003,0-0.007,0-0.01,0c-0.004,0-0.007,0-0.011,0c-0.003,0-0.007,0-0.011,0c-0.003,0-0.007,0-0.01,0    c-0.004,0-0.007,0-0.011,0c-0.003,0-0.007,0-0.01,0c-0.004,0-0.007,0-0.011,0s-0.007,0-0.011,0c-0.003,0-0.007,0-0.01,0    c-0.004,0-0.008,0-0.011,0c-0.004,0-0.007,0-0.011,0c-0.003,0-0.007,0-0.011,0c-0.003,0-0.007,0-0.01,0c-0.004,0-0.008,0-0.011,0    c-0.004,0-0.007,0-0.011,0s-0.007,0-0.011,0c-0.003,0-0.007,0-0.011,0c-0.003,0-0.007,0-0.011,0c-0.003,0-0.007,0-0.011,0    c-0.003,0-0.007,0-0.01,0c-0.004,0-0.008,0-0.011,0c-0.004,0-0.008,0-0.011,0c-0.004,0-0.008,0-0.011,0c-0.004,0-0.008,0-0.011,0    c-0.004,0-0.008,0-0.011,0c-0.004,0-0.008,0-0.011,0c-0.004,0-0.008,0-0.012,0c-0.003,0-0.007,0-0.011,0c-0.003,0-0.007,0-0.011,0    s-0.007,0-0.011,0s-0.007,0-0.011,0s-0.008,0-0.011,0c-0.004,0-0.008,0-0.012,0c-0.003,0-0.007,0-0.011,0s-0.007,0-0.011,0    s-0.008,0-0.011,0c-0.004,0-0.008,0-0.012,0s-0.007,0-0.011,0s-0.008,0-0.012,0c-0.003,0-0.007,0-0.011,0s-0.008,0-0.012,0    c-0.003,0-0.007,0-0.011,0s-0.008,0-0.012,0c-0.003,0-0.007,0-0.011,0s-0.008,0-0.012,0s-0.008,0-0.011,0    c-0.004,0-0.008,0-0.012,0s-0.008,0-0.012,0s-0.008,0-0.012,0c-0.003,0-0.007,0-0.011,0s-0.008,0-0.012,0s-0.008,0-0.012,0    s-0.008,0-0.012,0s-0.008,0-0.012,0s-0.008,0-0.012,0s-0.008,0-0.012,0s-0.008,0-0.012,0s-0.008,0-0.012,0s-0.008,0-0.012,0    s-0.008,0-0.012,0s-0.008,0-0.012,0s-0.008,0-0.012,0s-0.008,0-0.012,0c-0.005,0-0.009,0-0.013,0s-0.008,0-0.012,0    s-0.008,0-0.012,0c-0.005,0-0.009,0-0.013,0s-0.008,0-0.012,0s-0.009,0-0.013,0s-0.008,0-0.012,0s-0.009,0-0.013,0    s-0.008,0-0.012,0c-0.005,0-0.009,0-0.013,0s-0.008,0-0.013,0c-0.004,0-0.008,0-0.012,0c-0.005,0-0.009,0-0.013,0    s-0.009,0-0.013,0s-0.009,0-0.013,0s-0.008,0-0.013,0c-0.004,0-0.008,0-0.013,0c-0.004,0-0.008,0-0.013,0    c-0.004,0-0.008,0-0.013,0c-0.004,0-0.008,0-0.013,0c-0.004,0-0.008,0-0.013,0c-0.004,0-0.009,0-0.013,0s-0.009,0-0.013,0    c-0.005,0-0.009,0-0.013,0c-0.005,0-0.009,0-0.014,0c-0.004,0-0.009,0-0.013,0c-0.005,0-0.009,0-0.014,0c-0.004,0-0.009,0-0.013,0    s-0.009,0-0.014,0c-0.004,0-0.008,0-0.013,0s-0.009,0-0.014,0c-0.004,0-0.009,0-0.013,0c-0.005,0-0.009,0-0.014,0    s-0.009,0-0.014,0c-0.004,0-0.009,0-0.014,0c-0.004,0-0.009,0-0.013,0c-0.005,0-0.01,0-0.014,0c-0.005,0-0.01,0-0.014,0    c-0.005,0-0.01,0-0.014,0c-0.005,0-0.01,0-0.014,0c-0.005,0-0.01,0-0.014,0c-0.005,0-0.01,0-0.015,0c-0.004,0-0.009,0-0.014,0    s-0.009,0-0.014,0s-0.01,0-0.014,0c-0.005,0-0.01,0-0.015,0s-0.009,0-0.014,0s-0.01,0-0.015,0s-0.009,0-0.014,0s-0.01,0-0.015,0    s-0.01,0-0.015,0c-0.004,0-0.009,0-0.014,0s-0.01,0-0.015,0s-0.01,0-0.015,0s-0.01,0-0.015,0s-0.01,0-0.015,0s-0.01,0-0.015,0    s-0.01,0-0.015,0s-0.01,0-0.015,0s-0.01,0-0.015,0s-0.01,0-0.015,0s-0.011,0-0.016,0s-0.01,0-0.015,0s-0.01,0-0.016,0    c-0.005,0-0.01,0-0.015,0s-0.01,0-0.016,0c-0.005,0-0.01,0-0.015,0s-0.011,0-0.016,0s-0.01,0-0.016,0c-0.005,0-0.01,0-0.015,0    c-0.006,0-0.011,0-0.016,0c-0.006,0-0.011,0-0.016,0c-0.006,0-0.011,0-0.016,0c-0.006,0-0.011,0-0.016,0c-0.006,0-0.011,0-0.016,0    c-0.006,0-0.011,0-0.017,0c-0.005,0-0.01,0-0.016,0c-0.005,0-0.011,0-0.016,0c-0.006,0-0.011,0-0.017,0c-0.005,0-0.011,0-0.016,0    c-0.006,0-0.011,0-0.017,0c-0.005,0-0.011,0-0.016,0c-0.006,0-0.011,0-0.017,0c-0.005,0-0.011,0-0.017,0c-0.005,0-0.011,0-0.016,0    c-0.006,0-0.012,0-0.017,0c-0.006,0-0.012,0-0.017,0c-0.006,0-0.012,0-0.017,0c-0.006,0-0.012,0-0.017,0c-0.006,0-0.012,0-0.018,0    c-0.005,0-0.011,0-0.017,0s-0.011,0-0.017,0s-0.012,0-0.017,0c-0.006,0-0.012,0-0.018,0s-0.012,0-0.017,0    c-0.006,0-0.012,0-0.018,0s-0.012,0-0.018,0s-0.012,0-0.017,0c-0.006,0-0.012,0-0.018,0s-0.012,0-0.018,0s-0.012,0-0.018,0    s-0.012,0-0.018,0s-0.012,0-0.018,0s-0.012,0-0.018,0c-0.007,0-0.013,0-0.019,0s-0.012,0-0.018,0s-0.012,0-0.018,0    c-0.007,0-0.013,0-0.019,0s-0.012,0-0.019,0c-0.006,0-0.012,0-0.018,0s-0.013,0-0.019,0s-0.013,0-0.019,0s-0.012,0-0.019,0    c-0.006,0-0.012,0-0.019,0c-0.006,0-0.012,0-0.019,0c-0.006,0-0.012,0-0.019,0c-0.006,0-0.013,0-0.019,0s-0.013,0-0.019,0    c-0.007,0-0.013,0-0.02,0c-0.006,0-0.013,0-0.019,0c-0.007,0-0.013,0-0.02,0c-0.006,0-0.013,0-0.019,0c-0.007,0-0.013,0-0.02,0    s-0.013,0-0.02,0c-0.006,0-0.013,0-0.02,0c-0.006,0-0.013,0-0.02,0c-0.006,0-0.013,0-0.02,0c-0.006,0-0.013,0-0.02,0    s-0.013,0-0.02,0s-0.014,0-0.02,0c-0.007,0-0.014,0-0.021,0s-0.013,0-0.02,0s-0.014,0-0.021,0s-0.014,0-0.02,0    c-0.007,0-0.014,0-0.021,0s-0.014,0-0.021,0s-0.014,0-0.021,0s-0.014,0-0.021,0s-0.014,0-0.021,0s-0.014,0-0.021,0    s-0.014,0-0.021,0s-0.015,0-0.021,0s-0.014,0-0.021,0s-0.014,0-0.021,0c-0.007,0-0.014,0-0.021,0c-0.008,0-0.015,0-0.021,0    s-0.015,0-0.021,0s-0.014,0-0.021,0c-0.007,0-0.014,0-0.021,0c-0.007,0-0.014,0-0.021,0c-0.007,0-0.015,0-0.021,0    s-0.015,0-0.021,0c-0.008,0-0.015,0-0.022,0c-0.007,0-0.015,0-0.021,0c-0.008,0-0.015,0-0.022,0c-0.007,0-0.015,0-0.021,0    c-0.008,0-0.015,0-0.022,0v2c0.008,0,0.015,0,0.022,0c0.007,0,0.015,0,0.021,0c0.008,0,0.015,0,0.022,0c0.007,0,0.015,0,0.021,0    c0.008,0,0.015,0,0.022,0c0.007,0,0.015,0,0.021,0s0.015,0,0.021,0c0.008,0,0.015,0,0.021,0c0.008,0,0.015,0,0.021,0    c0.008,0,0.015,0,0.021,0s0.015,0,0.021,0s0.014,0,0.021,0c0.007,0,0.014,0,0.021,0c0.008,0,0.015,0,0.021,0s0.014,0,0.021,0    s0.015,0,0.021,0s0.014,0,0.021,0s0.014,0,0.021,0s0.014,0,0.021,0s0.014,0,0.021,0s0.014,0,0.021,0s0.014,0,0.021,0    s0.014,0,0.021,0c0.006,0,0.013,0,0.02,0s0.014,0,0.021,0s0.013,0,0.02,0s0.014,0,0.021,0c0.006,0,0.013,0,0.02,0s0.013,0,0.02,0    s0.014,0,0.02,0c0.007,0,0.014,0,0.02,0c0.007,0,0.014,0,0.02,0c0.007,0,0.014,0,0.02,0c0.007,0,0.013,0,0.02,0s0.013,0,0.02,0    c0.006,0,0.013,0,0.019,0c0.007,0,0.013,0,0.02,0c0.006,0,0.013,0,0.019,0c0.007,0,0.013,0,0.02,0c0.006,0,0.013,0,0.019,0    s0.013,0,0.019,0c0.007,0,0.013,0,0.019,0c0.007,0,0.013,0,0.019,0c0.007,0,0.013,0,0.019,0c0.007,0,0.013,0,0.019,0    s0.013,0,0.019,0s0.013,0,0.019,0s0.012,0,0.018,0c0.007,0,0.013,0,0.019,0s0.012,0,0.019,0c0.006,0,0.012,0,0.018,0    s0.012,0,0.018,0s0.012,0,0.019,0c0.006,0,0.012,0,0.018,0s0.012,0,0.018,0s0.012,0,0.018,0s0.012,0,0.018,0s0.012,0,0.018,0    s0.012,0,0.018,0c0.005,0,0.011,0,0.017,0s0.012,0,0.018,0s0.012,0,0.018,0c0.005,0,0.011,0,0.017,0s0.012,0,0.018,0    c0.005,0,0.011,0,0.017,0s0.011,0,0.017,0s0.012,0,0.017,0c0.006,0,0.012,0,0.018,0c0.005,0,0.011,0,0.017,0    c0.005,0,0.011,0,0.017,0c0.005,0,0.011,0,0.017,0c0.005,0,0.011,0,0.017,0c0.005,0,0.011,0,0.016,0c0.006,0,0.012,0,0.017,0    c0.006,0,0.011,0,0.017,0c0.005,0,0.011,0,0.016,0c0.006,0,0.011,0,0.017,0c0.005,0,0.011,0,0.016,0c0.006,0,0.011,0,0.017,0    c0.005,0,0.011,0,0.016,0c0.006,0,0.011,0,0.016,0c0.006,0,0.011,0,0.017,0c0.005,0,0.01,0,0.016,0c0.005,0,0.01,0,0.016,0    c0.005,0,0.01,0,0.016,0c0.005,0,0.01,0,0.016,0c0.005,0,0.01,0,0.016,0c0.005,0,0.01,0,0.015,0c0.006,0,0.011,0,0.016,0    s0.011,0,0.016,0s0.01,0,0.015,0c0.006,0,0.011,0,0.016,0s0.01,0,0.015,0c0.006,0,0.011,0,0.016,0s0.01,0,0.015,0s0.011,0,0.016,0    s0.01,0,0.015,0s0.01,0,0.015,0s0.01,0,0.015,0s0.01,0,0.015,0s0.01,0,0.015,0s0.01,0,0.015,0s0.01,0,0.015,0s0.01,0,0.015,0    s0.01,0,0.015,0s0.01,0,0.014,0c0.005,0,0.01,0,0.015,0s0.01,0,0.015,0s0.009,0,0.014,0s0.01,0,0.015,0s0.009,0,0.014,0    s0.01,0,0.015,0c0.004,0,0.009,0,0.014,0s0.009,0,0.014,0s0.01,0,0.014,0c0.005,0,0.01,0,0.015,0c0.004,0,0.009,0,0.014,0    c0.004,0,0.009,0,0.014,0c0.004,0,0.009,0,0.014,0c0.004,0,0.009,0,0.014,0c0.004,0,0.009,0,0.014,0c0.004,0,0.009,0,0.013,0    c0.005,0,0.01,0,0.014,0c0.005,0,0.009,0,0.014,0s0.009,0,0.014,0c0.004,0,0.009,0,0.013,0c0.005,0,0.009,0,0.014,0    s0.009,0,0.013,0c0.005,0,0.01,0,0.014,0s0.009,0,0.013,0c0.005,0,0.009,0,0.014,0c0.004,0,0.009,0,0.013,0    c0.005,0,0.009,0,0.014,0c0.004,0,0.008,0,0.013,0c0.004,0,0.009,0,0.013,0s0.009,0,0.013,0c0.005,0,0.009,0,0.013,0    c0.005,0,0.009,0,0.013,0c0.005,0,0.009,0,0.013,0c0.005,0,0.009,0,0.013,0c0.005,0,0.009,0,0.013,0c0.005,0,0.009,0,0.013,0    s0.009,0,0.013,0s0.009,0,0.013,0s0.008,0,0.013,0c0.004,0,0.008,0,0.012,0c0.005,0,0.009,0,0.013,0s0.008,0,0.013,0    c0.004,0,0.008,0,0.012,0s0.009,0,0.013,0s0.008,0,0.012,0s0.009,0,0.013,0s0.008,0,0.012,0s0.008,0,0.013,0    c0.004,0,0.008,0,0.012,0s0.008,0,0.012,0s0.008,0,0.013,0c0.004,0,0.008,0,0.012,0s0.008,0,0.012,0s0.008,0,0.012,0    s0.008,0,0.012,0s0.008,0,0.012,0s0.008,0,0.012,0s0.008,0,0.012,0s0.008,0,0.012,0s0.008,0,0.012,0s0.008,0,0.012,0    s0.008,0,0.012,0s0.008,0,0.012,0s0.008,0,0.012,0s0.008,0,0.011,0c0.004,0,0.008,0,0.012,0s0.008,0,0.012,0s0.008,0,0.012,0    c0.003,0,0.007,0,0.011,0s0.008,0,0.012,0s0.008,0,0.011,0c0.004,0,0.008,0,0.012,0s0.008,0,0.011,0c0.004,0,0.008,0,0.012,0    s0.008,0,0.011,0c0.004,0,0.008,0,0.012,0s0.007,0,0.011,0s0.008,0,0.012,0c0.003,0,0.007,0,0.011,0s0.007,0,0.011,0    s0.008,0,0.011,0c0.004,0,0.008,0,0.012,0c0.003,0,0.007,0,0.011,0s0.007,0,0.011,0s0.007,0,0.011,0s0.008,0,0.011,0    c0.004,0,0.008,0,0.011,0c0.004,0,0.008,0,0.012,0c0.003,0,0.007,0,0.011,0c0.003,0,0.007,0,0.011,0c0.003,0,0.007,0,0.011,0    c0.003,0,0.007,0,0.011,0c0.003,0,0.007,0,0.011,0c0.003,0,0.007,0,0.011,0c0.003,0,0.007,0,0.01,0c0.004,0,0.008,0,0.011,0    c0.004,0,0.008,0,0.011,0c0.004,0,0.008,0,0.011,0c0.004,0,0.007,0,0.011,0s0.007,0,0.011,0c0.003,0,0.007,0,0.011,0    c0.003,0,0.007,0,0.01,0c0.004,0,0.008,0,0.011,0c0.004,0,0.007,0,0.011,0c0.003,0,0.007,0,0.011,0c0.003,0,0.007,0,0.01,0    c0.004,0,0.007,0,0.011,0s0.007,0,0.011,0c0.003,0,0.007,0,0.01,0c0.004,0,0.007,0,0.011,0c0.003,0,0.007,0,0.01,0    c0.004,0,0.008,0,0.011,0c0.004,0,0.007,0,0.011,0c0.003,0,0.007,0,0.01,0c0.004,0,0.007,0,0.011,0c0.003,0,0.007,0,0.01,0    c0.004,0,0.007,0,0.011,0c0.003,0,0.007,0,0.01,0c0.004,0,0.007,0,0.011,0c0.003,0,0.007,0,0.01,0c0.004,0,0.007,0,0.011,0    c0.003,0,0.007,0,0.01,0c0.004,0,0.007,0,0.011,0c0.003,0,0.007,0,0.01,0s0.007,0,0.01,0c0.004,0,0.007,0,0.011,0    c0.003,0,0.007,0,0.01,0c0.004,0,0.007,0,0.01,0c0.004,0,0.007,0,0.011,0c0.003,0,0.007,0,0.01,0c0.004,0,0.007,0,0.011,0    c0.003,0,0.006,0,0.01,0c0.003,0,0.007,0,0.01,0c0.004,0,0.007,0,0.011,0c0.003,0,0.006,0,0.01,0c0.003,0,0.007,0,0.01,0    c0.004,0,0.007,0,0.01,0c0.004,0,0.007,0,0.011,0c0.003,0,0.007,0,0.01,0s0.007,0,0.01,0c0.004,0,0.007,0,0.01,0    c0.004,0,0.007,0,0.011,0c0.003,0,0.007,0,0.01,0s0.007,0,0.01,0c0.004,0,0.007,0,0.011,0c0.003,0,0.006,0,0.01,0    c0.003,0,0.007,0,0.01,0s0.007,0,0.01,0c0.004,0,0.007,0,0.01,0c0.004,0,0.007,0,0.011,0c0.003,0,0.007,0,0.01,0s0.007,0,0.01,0    c0.004,0,0.007,0,0.01,0c0.004,0,0.007,0,0.011,0c0.003,0,0.006,0,0.01,0c0.003,0,0.007,0,0.01,0s0.007,0,0.01,0    c0.004,0,0.007,0,0.01,0c0.004,0,0.007,0,0.011,0c0.003,0,0.007,0,0.01,0s0.007,0,0.01,0s0.007,0,0.01,0c0.004,0,0.007,0,0.011,0    c0.003,0,0.006,0,0.01,0c0.003,0,0.007,0,0.01,0s0.007,0,0.01,0c0.004,0,0.007,0,0.01,0c0.004,0,0.007,0,0.011,0    c0.003,0,0.007,0,0.01,0s0.007,0,0.01,0c0.004,0,0.007,0,0.01,0c0.004,0,0.007,0,0.011,0c0.003,0,0.007,0,0.01,0s0.007,0,0.01,0    c0.004,0,0.007,0,0.01,0c0.004,0,0.007,0,0.011,0c0.003,0,0.007,0,0.01,0s0.007,0,0.01,0c0.004,0,0.007,0,0.011,0    c0.003,0,0.007,0,0.01,0s0.007,0,0.01,0c0.004,0,0.007,0,0.011,0c0.003,0,0.007,0,0.01,0s0.007,0,0.01,0c0.004,0,0.007,0,0.011,0    c0.003,0,0.007,0,0.01,0c0.004,0,0.007,0,0.01,0c0.004,0,0.007,0,0.011,0c0.003,0,0.007,0,0.01,0c0.004,0,0.007,0,0.011,0    c0.003,0,0.007,0,0.01,0c0.004,0,0.007,0,0.01,0c0.004,0,0.007,0,0.011,0c0.003,0,0.007,0,0.01,0c0.004,0,0.007,0,0.011,0    c0.003,0,0.007,0,0.01,0c0.004,0,0.007,0,0.011,0c0.003,0,0.007,0,0.01,0c0.004,0,0.007,0,0.011,0c0.003,0,0.007,0,0.01,0    c0.004,0,0.008,0,0.011,0c0.004,0,0.007,0,0.011,0c0.003,0,0.007,0,0.01,0c0.004,0,0.007,0,0.011,0c0.003,0,0.007,0,0.01,0    c0.004,0,0.008,0,0.011,0c0.004,0,0.007,0,0.011,0c0.003,0,0.007,0,0.011,0c0.003,0,0.007,0,0.01,0c0.004,0,0.007,0,0.011,0    c0.003,0,0.007,0,0.011,0c0.003,0,0.007,0,0.01,0c0.004,0,0.008,0,0.011,0c0.004,0,0.007,0,0.011,0s0.007,0,0.011,0    c0.003,0,0.007,0,0.011,0c0.003,0,0.007,0,0.011,0c0.003,0,0.007,0,0.01,0c0.004,0,0.008,0,0.011,0c0.004,0,0.008,0,0.011,0    c0.004,0,0.008,0,0.011,0c0.004,0,0.008,0,0.011,0c0.004,0,0.008,0,0.011,0c0.004,0,0.008,0,0.011,0c0.004,0,0.008,0,0.011,0    c0.004,0,0.008,0,0.011,0c0.004,0,0.008,0,0.011,0c0.004,0,0.008,0,0.012,0c0.003,0,0.007,0,0.011,0c0.003,0,0.007,0,0.011,0    s0.007,0,0.011,0s0.008,0,0.011,0c0.004,0,0.008,0,0.012,0c0.003,0,0.007,0,0.011,0s0.007,0,0.011,0s0.008,0,0.012,0    c0.003,0,0.007,0,0.011,0s0.008,0,0.011,0c0.004,0,0.008,0,0.012,0s0.008,0,0.011,0c0.004,0,0.008,0,0.012,0s0.007,0,0.011,0    s0.008,0,0.012,0s0.008,0,0.012,0c0.003,0,0.007,0,0.011,0s0.008,0,0.012,0s0.008,0,0.011,0c0.004,0,0.008,0,0.012,0    s0.008,0,0.012,0s0.008,0,0.012,0s0.008,0,0.012,0c0.003,0,0.007,0,0.011,0s0.008,0,0.012,0s0.008,0,0.012,0s0.008,0,0.012,0    s0.008,0,0.012,0s0.008,0,0.012,0s0.008,0,0.012,0s0.008,0,0.012,0s0.008,0,0.013,0c0.004,0,0.008,0,0.012,0s0.008,0,0.012,0    s0.008,0,0.012,0s0.008,0,0.012,0s0.009,0,0.013,0s0.008,0,0.012,0s0.008,0,0.013,0c0.004,0,0.008,0,0.012,0s0.008,0,0.012,0    c0.005,0,0.009,0,0.013,0s0.008,0,0.013,0c0.004,0,0.008,0,0.012,0s0.009,0,0.013,0s0.008,0,0.013,0c0.004,0,0.008,0,0.012,0    c0.005,0,0.009,0,0.013,0s0.009,0,0.013,0s0.008,0,0.013,0c0.004,0,0.008,0,0.013,0c0.004,0,0.008,0,0.013,0    c0.004,0,0.008,0,0.013,0c0.004,0,0.008,0,0.013,0c0.004,0,0.009,0,0.013,0s0.009,0,0.013,0s0.009,0,0.013,0    c0.005,0,0.009,0,0.013,0c0.005,0,0.009,0,0.014,0c0.004,0,0.009,0,0.013,0s0.009,0,0.013,0c0.005,0,0.009,0,0.014,0    c0.004,0,0.009,0,0.013,0c0.005,0,0.009,0,0.014,0c0.004,0,0.009,0,0.013,0c0.005,0,0.009,0,0.014,0s0.009,0,0.014,0    c0.004,0,0.009,0,0.013,0c0.005,0,0.01,0,0.014,0c0.005,0,0.009,0,0.014,0s0.009,0,0.014,0s0.009,0,0.014,0s0.009,0,0.014,0    s0.009,0,0.014,0s0.009,0,0.014,0s0.009,0,0.014,0s0.01,0,0.014,0c0.005,0,0.01,0,0.015,0c0.004,0,0.009,0,0.014,0    s0.009,0,0.014,0s0.01,0,0.015,0c0.004,0,0.009,0,0.014,0s0.01,0,0.015,0s0.009,0,0.014,0s0.01,0,0.015,0s0.01,0,0.015,0    s0.009,0,0.014,0s0.01,0,0.015,0s0.01,0,0.015,0s0.01,0,0.015,0s0.01,0,0.015,0s0.01,0,0.015,0s0.01,0,0.015,0s0.01,0,0.015,0    s0.01,0,0.015,0c0.006,0,0.011,0,0.016,0s0.01,0,0.015,0s0.01,0,0.016,0c0.005,0,0.01,0,0.015,0s0.01,0,0.015,0    c0.006,0,0.011,0,0.016,0s0.01,0,0.016,0c0.005,0,0.01,0,0.016,0c0.005,0,0.01,0,0.015,0c0.006,0,0.011,0,0.016,0s0.011,0,0.016,0    s0.011,0,0.016,0s0.011,0,0.016,0s0.011,0,0.016,0s0.011,0,0.016,0c0.006,0,0.011,0,0.017,0c0.005,0,0.01,0,0.016,0    c0.005,0,0.011,0,0.016,0c0.006,0,0.011,0,0.017,0c0.005,0,0.011,0,0.016,0c0.006,0,0.011,0,0.017,0c0.005,0,0.011,0,0.016,0    c0.006,0,0.012,0,0.017,0c0.006,0,0.011,0,0.017,0s0.011,0,0.017,0c0.005,0,0.011,0,0.017,0c0.005,0,0.011,0,0.017,0    c0.005,0,0.011,0,0.017,0c0.005,0,0.011,0,0.017,0s0.011,0,0.017,0s0.012,0,0.017,0c0.006,0,0.012,0,0.018,0    c0.005,0,0.011,0,0.017,0s0.012,0,0.018,0c0.005,0,0.011,0,0.017,0s0.012,0,0.018,0s0.012,0,0.017,0c0.006,0,0.012,0,0.018,0    s0.012,0,0.018,0s0.012,0,0.018,0s0.012,0,0.018,0s0.012,0,0.018,0s0.012,0,0.018,0s0.012,0,0.018,0c0.007,0,0.013,0,0.019,0    s0.012,0,0.018,0s0.013,0,0.019,0s0.012,0,0.018,0s0.013,0,0.019,0s0.012,0,0.019,0c0.006,0,0.012,0,0.018,0    c0.007,0,0.013,0,0.019,0c0.007,0,0.013,0,0.019,0s0.013,0,0.019,0c0.007,0,0.013,0,0.019,0c0.007,0,0.013,0,0.019,0    c0.007,0,0.013,0,0.02,0c0.006,0,0.013,0,0.019,0s0.013,0,0.019,0c0.007,0,0.013,0,0.02,0s0.013,0,0.02,0c0.006,0,0.013,0,0.019,0    c0.007,0,0.013,0,0.02,0s0.013,0,0.02,0c0.006,0,0.013,0,0.02,0c0.006,0,0.013,0,0.02,0c0.006,0,0.013,0,0.02,0s0.013,0,0.02,0    s0.014,0,0.02,0c0.007,0,0.014,0,0.021,0c0.006,0,0.013,0,0.02,0s0.014,0,0.021,0c0.006,0,0.013,0,0.02,0s0.014,0,0.021,0    s0.014,0,0.021,0s0.014,0,0.02,0c0.008,0,0.014,0,0.021,0c0.006,0,0.014,0,0.02,0c0.008,0,0.015,0,0.021,0s0.014,0,0.021,0    s0.014,0,0.021,0s0.014,0,0.021,0c0.007,0,0.014,0,0.021,0V11.001z M16.062,10.887c-3.052,0.114-2.492,0.114-6.067,0.114v2    c3.604,0,3.071,0,6.142-0.115L16.062,10.887z M2.892,12.001l-0.955-0.298l-0.404,1.298h1.359V12.001z M16.099,11.887l0.037,0.999    l1.327-0.05l-0.414-1.262L16.099,11.887z"></path>
	</g>
	<g>
		<defs>
			<path id="SVGID_5_" d="M1.014,13.769C0.871,12.577,1.8,11.528,3,11.528h13.376c1.221,0,2.157,1.085,1.979,2.293l-0.708,4.784     c-0.146,0.98-0.987,1.707-1.979,1.707H3.579c-1.012,0-1.864-0.756-1.985-1.76L1.014,13.769z"></path>
		</defs>
		<clipPath id="SVGID_6_">
			<use xlink:href="#SVGID_5_" overflow="visible"></use>
		</clipPath>
		<path clip-path="url(#SVGID_6_)" d="M3,10.529c-1.799,0-3.193,1.573-2.978,3.359l1.985-0.24C1.935,13.054,2.4,12.529,3,12.529    V10.529z M16.375,12.529c0.61,0,1.078,0.542,0.989,1.146l1.979,0.293c0.268-1.812-1.137-3.438-2.968-3.438V12.529z M16.657,18.459    c-0.073,0.49-0.494,0.854-0.989,0.854v2c1.487,0,2.75-1.089,2.968-2.561L16.657,18.459z M3.579,19.313    c-0.506,0-0.933-0.378-0.993-0.88L0.6,18.673c0.182,1.507,1.461,2.64,2.979,2.64V19.313z M2.585,18.433l-0.578-4.784l-1.985,0.24    L0.6,18.673L2.585,18.433z M15.667,19.313H3.579v2h12.089V19.313z M17.365,13.675l-0.708,4.784l1.979,0.293l0.708-4.784    L17.365,13.675z M3,12.529h13.376v-2H3V12.529z M3,11.529v1V11.529z M18.354,13.821l-0.989-0.146L18.354,13.821z M16.375,11.529    v-1V11.529z M1.593,18.553L0.6,18.673L1.593,18.553z"></path>
	</g>
	<g>
		<defs>
			<path id="SVGID_7_" d="M1.521,21.003c0-0.633,0.513-1.146,1.146-1.146h13.806c0.633,0,1.146,0.513,1.146,1.146     s-0.513,1.146-1.146,1.146H2.667C2.034,22.148,1.521,21.636,1.521,21.003z"></path>
		</defs>
		<clipPath id="SVGID_8_">
			<use xlink:href="#SVGID_7_" overflow="visible"></use>
		</clipPath>
		<path clip-path="url(#SVGID_8_)" d="M2.667,18.858c-1.185,0-2.146,0.96-2.146,2.146h2c0-0.081,0.065-0.146,0.146-0.146V18.858z     M16.472,20.858c0.08,0,0.146,0.064,0.146,0.146h2c0-1.186-0.961-2.146-2.146-2.146V20.858z M16.618,21.004    c0,0.08-0.065,0.146-0.146,0.146v2c1.185,0,2.146-0.961,2.146-2.146H16.618z M2.667,21.149c-0.08,0-0.146-0.065-0.146-0.146h-2    c0,1.185,0.961,2.146,2.146,2.146V21.149z M16.472,21.149H2.667v2h13.806V21.149z M2.667,20.858h13.806v-2H2.667V20.858z"></path>
	</g>
	<path fill="#AF0000" d="M5.39,15.887l1.444,1.444l0.707-0.707L6.097,15.18L5.39,15.887z M6.834,13.735L5.39,15.18l0.707,0.707   l1.444-1.443L6.834,13.735z M6.834,17.331c0.195,0.195,0.512,0.195,0.707,0s0.195-0.512,0-0.707L6.834,17.331z M5.744,15.533   L5.39,15.18c-0.195,0.195-0.195,0.512,0,0.707L5.744,15.533z M7.542,14.443c0.195-0.195,0.195-0.513,0-0.708   c-0.195-0.194-0.512-0.194-0.707,0L7.542,14.443z"></path>
	<path fill="#AF0000" d="M13.575,15.18l-1.444,1.444l0.707,0.707l1.444-1.444L13.575,15.18z M12.13,14.443l1.444,1.443l0.707-0.707   l-1.444-1.444L12.13,14.443z M12.13,16.624c-0.195,0.195-0.195,0.512,0,0.707s0.512,0.195,0.707,0L12.13,16.624z M13.928,15.533   l0.354,0.354c0.195-0.195,0.195-0.512,0-0.707L13.928,15.533z M12.837,13.735c-0.195-0.194-0.512-0.194-0.707,0   c-0.195,0.195-0.195,0.513,0,0.708L12.837,13.735z"></path>
	<path fill="#AF0000" d="M9.487,17.66l1.455-4l-0.94-0.341l-1.454,4L9.487,17.66z M10.942,13.66c0.094-0.259-0.04-0.546-0.3-0.641   c-0.259-0.094-0.546,0.04-0.641,0.3L10.942,13.66z M8.547,17.319c-0.095,0.259,0.039,0.546,0.299,0.641   c0.26,0.094,0.546-0.04,0.641-0.3L8.547,17.319z"></path>
</g>
</svg>
