<?xml version="1.0" encoding="UTF-8"?>
<!-- Generator: Adobe Illustrator 16.0.0, SVG Export Plug-In . SVG Version: 6.00 Build 0)  -->
<svg xmlns="http://www.w3.org/2000/svg" xmlns:xlink="http://www.w3.org/1999/xlink" version="1.1" id="Layer_1" x="0px" y="0px" width="19.6px" height="16.145px" viewBox="0 0 19.6 16.145" xml:space="preserve">
<g>
	<g>
		<defs>
			<path id="SVGID_1_" d="M0,5c0-2.763,2.237-5,5-5h9.6c2.762,0,5,2.237,5,5v3.818c0,2.763-2.238,5-5,5H5c-2.763,0-5-2.237-5-5V5z"></path>
		</defs>
		<clipPath id="SVGID_2_">
			<use xlink:href="#SVGID_1_" overflow="visible"></use>
		</clipPath>
		<path clip-path="url(#SVGID_2_)" d="M5-1C1.687-1-1,1.687-1,5h2c0-2.209,1.791-4,4-4V-1z M14.6,1c2.209,0,4,1.791,4,4h2    c0-3.313-2.686-6-6-6V1z M18.6,8.82c0,2.209-1.791,4-4,4v2c3.314,0,6-2.687,6-6H18.6z M5,12.82c-2.209,0-4-1.791-4-4h-2    c0,3.313,2.687,6,6,6V12.82z M1,8.82V5h-2V8.82H1z M14.6,12.82H5v2h9.6V12.82z M18.6,5V8.82h2V5H18.6z M5,1h9.6v-2H5V1z"></path>
	</g>
</g>
<path d="M2.727,7.472h5.811v-1H2.727V7.472z M2.727,4.127h13.73v-1H2.727V4.127z"></path>
<g>
	<g>
		<defs>
			<circle id="SVGID_3_" cx="14.453" cy="9.327" r="3.189"></circle>
		</defs>
		<clipPath id="SVGID_4_">
			<use xlink:href="#SVGID_3_" overflow="visible"></use>
		</clipPath>
		<path clip-path="url(#SVGID_4_)" fill="#AF0000" d="M14.453,7.139c1.209,0,2.188,0.979,2.188,2.188h2    c0-2.313-1.876-4.188-4.188-4.188V7.139z M12.264,9.327c0-1.209,0.98-2.188,2.189-2.188v-2c-2.313,0-4.189,1.875-4.189,4.188    H12.264z M14.453,11.517c-1.209,0-2.189-0.979-2.189-2.188h-2c0,2.313,1.876,4.188,4.189,4.188V11.517z M16.643,9.327    c0,1.21-0.979,2.188-2.188,2.188v2c2.313,0,4.188-1.875,4.188-4.188H16.643z"></path>
	</g>
</g>
<rect x="12.09" y="12.517" fill="#FFFFFF" width="4.726" height="1.383"></rect>
<g>
	<path fill="#AF0000" d="M13.281,15.082c-0.34,0.171-0.722-0.134-0.665-0.531l-0.932-0.149c-0.167,1.194,0.975,2.107,1.994,1.597   l0.585-0.292l-0.397-0.916L13.281,15.082z"></path>
	<polygon fill="#AF0000" points="13.042,11.495 12.112,11.347 11.685,14.402 12.616,14.55  "></polygon>
	<path fill="#AF0000" d="M16.309,14.559c0.051,0.397-0.329,0.696-0.667,0.525l-0.402,0.914c1.016,0.513,2.156-0.388,2.002-1.579   L16.309,14.559z"></path>
	<polygon fill="#AF0000" points="15.911,11.49 16.309,14.558 17.241,14.419 16.844,11.352  "></polygon>
	<path fill="#AF0000" d="M15.066,14.793c-0.379-0.19-0.819-0.191-1.199-0.003l0.397,0.916c0.127-0.064,0.273-0.064,0.399,0.001   l0.576,0.291l0.402-0.915L15.066,14.793z"></path>
</g>
</svg>
