<?xml version="1.0" encoding="UTF-8"?>
<!-- Generator: Adobe Illustrator 16.0.0, SVG Export Plug-In . SVG Version: 6.00 Build 0)  -->
<svg xmlns="http://www.w3.org/2000/svg" xmlns:xlink="http://www.w3.org/1999/xlink" version="1.1" id="Layer_1" x="0px" y="0px" width="20.68px" height="20.674px" viewBox="0 0 20.68 20.674" xml:space="preserve">
<g>
	<path d="M6.223,19.982c0-0.684-0.01-3.188-0.021-5.645c-0.01-2.457-0.02-4.862-0.02-5.352h-1c0,0.49,0.01,2.9,0.02,5.355   c0.011,2.457,0.021,4.959,0.021,5.639L6.223,19.982L6.223,19.982z M17.758,19.217c0.039-0.041,0.075-0.063,0.09-0.069   c0.008-0.005,0.016-0.008,0.02-0.011c0.002-0.002,0.003-0.002,0.004-0.002s0.002-0.002,0.002-0.002l-0.001,0.002   c-0.001,0-0.002,0-0.004,0c-0.003,0.002-0.007,0.004-0.013,0.006c-0.012,0.004-0.027,0.008-0.047,0.012   c-0.082,0.02-0.207,0.039-0.379,0.063c-0.338,0.041-0.812,0.076-1.377,0.106c-1.136,0.063-2.617,0.104-4.106,0.136   c-1.489,0.025-2.979,0.039-4.132,0.043c-0.575,0-1.064,0-1.425-0.004c-0.182,0-0.328-0.004-0.438-0.006   c-0.055-0.002-0.099-0.003-0.131-0.004c-0.017-0.001-0.029-0.001-0.039-0.002c-0.011,0-0.014,0-0.013,0l-0.09,0.996   c0.154,0.016,1.001,0.021,2.136,0.02c1.155-0.004,2.653-0.018,4.148-0.043c1.493-0.027,2.99-0.072,4.145-0.137   c0.574-0.031,1.07-0.068,1.441-0.113c0.186-0.022,0.35-0.05,0.48-0.078c0.065-0.017,0.135-0.033,0.198-0.061   c0.05-0.02,0.162-0.063,0.257-0.164L17.758,19.217z M18.532,17.608c-0.151,0.688-0.436,1.248-0.774,1.608l0.729,0.688   c0.493-0.523,0.843-1.262,1.022-2.08L18.532,17.608z M19.686,11.476l-1.157,6.146l0.981,0.188l1.157-6.146L19.686,11.476z    M19.136,10.172c0.346,0.365,0.543,0.867,0.543,1.396h1c0-0.774-0.289-1.524-0.813-2.082L19.136,10.172z M17.863,9.608   c0.472,0,0.93,0.199,1.272,0.563l0.729-0.687c-0.524-0.558-1.244-0.878-2.001-0.878V9.608z M14.389,9.608h3.474v-1h-3.474V9.608z    M13.889,2.961v6.147h1V2.961H13.889z M13.348,1.564c0.344,0.365,0.541,0.867,0.541,1.396h1c0-0.775-0.289-1.525-0.813-2.082   L13.348,1.564z M12.076,1.002c0.473,0,0.932,0.198,1.272,0.563l0.729-0.686C13.552,0.32,12.832,0,12.076,0V1.002z M10.803,1.564   c0.343-0.364,0.801-0.563,1.272-0.563v-1c-0.757,0-1.477,0.319-2.001,0.877L10.803,1.564z M10.261,2.961   c0-0.528,0.197-1.03,0.542-1.396l-0.729-0.687C9.552,1.437,9.261,2.187,9.261,2.961H10.261z M10.261,4.19V2.961h-1V4.19H10.261z    M6.05,9.332c0.201-0.216,0.548-0.533,0.979-0.933C7.451,8.008,7.94,7.553,8.405,7.084c0.462-0.468,0.911-0.961,1.248-1.433   c0.32-0.446,0.608-0.965,0.608-1.461h-1c0,0.155-0.112,0.446-0.421,0.879C8.549,5.477,8.142,5.926,7.693,6.381   C7.247,6.834,6.772,7.275,6.349,7.666C5.934,8.049,5.553,8.398,5.321,8.646L6.05,9.332z M5.723,19.982h-0.5   c0,0.259,0.197,0.477,0.455,0.498L5.723,19.982z M19.02,17.715l0.488,0.107c0-0.006,0.002-0.011,0.002-0.016L19.02,17.715z    M20.179,11.568l0.492,0.094c0.006-0.031,0.008-0.063,0.008-0.094H20.179z M14.389,9.108h-0.5c0,0.276,0.225,0.5,0.5,0.5V9.108z    M14.389,2.961h-0.5H14.389z M12.076,0.502v-0.5V0.502z M9.761,4.19h0.5H9.761z M5.684,8.988L5.32,8.646   C5.233,8.738,5.184,8.86,5.184,8.988H5.684z"></path>
	<path fill="#AF0000" d="M2.749,9.525c1.319-0.066,2.593-0.037,2.826-0.037v-1c-0.206,0-1.523-0.029-2.877,0.039L2.749,9.525z    M1.227,9.765c0.141-0.073,0.318-0.118,0.58-0.151c0.288-0.035,0.551-0.047,0.967-0.09L2.673,8.529   c-0.327,0.033-0.709,0.057-0.99,0.092C1.376,8.66,1.062,8.725,0.766,8.879L1.227,9.765z M1.001,10.338   c0-0.053,0.026-0.168,0.104-0.318c0.073-0.145,0.165-0.268,0.236-0.334L0.654,8.957c-0.174,0.162-0.33,0.387-0.442,0.61   c-0.11,0.22-0.211,0.497-0.211,0.771H1.001z M1.001,18.946V10.34h-1v8.606H1.001z M1.226,19.451C1.078,19.312,1,19.131,1,18.946H0   c0,0.47,0.198,0.912,0.54,1.233L1.226,19.451z M1.808,19.674c-0.225,0-0.434-0.084-0.582-0.225L0.54,20.178   c0.342,0.32,0.799,0.496,1.269,0.496V19.674z M4.424,19.674H1.809v1h2.614V19.674z M5.233,19.572   c0.004-0.005-0.009,0.012-0.062,0.028c-0.052,0.021-0.12,0.032-0.206,0.047c-0.176,0.024-0.369,0.026-0.543,0.026v1   c0.174,0,0.433-0.002,0.687-0.037c0.231-0.033,0.567-0.109,0.809-0.338L5.233,19.572z M5.075,8.988   c0,0.164,0.063,2.864,0.093,5.518c0.016,1.332,0.022,2.658,0.012,3.664c-0.006,0.504-0.017,0.922-0.032,1.217   c-0.008,0.148-0.017,0.259-0.026,0.328c-0.005,0.037-0.008,0.051-0.008,0.05s0.004-0.017,0.014-0.039   c0.007-0.015,0.035-0.084,0.107-0.151l0.685,0.729c0.08-0.073,0.116-0.155,0.13-0.188c0.018-0.04,0.027-0.076,0.034-0.104   c0.015-0.055,0.022-0.112,0.029-0.166c0.015-0.106,0.025-0.245,0.034-0.402c0.018-0.316,0.027-0.753,0.033-1.261   c0.012-1.019,0.004-2.353-0.013-3.688C6.137,11.811,6.075,9.152,6.075,8.99L5.075,8.988L5.075,8.988z M2.723,9.026L2.698,8.527   c-0.009,0-0.018,0.001-0.024,0.002L2.723,9.026z M0.997,9.321L0.767,8.879C0.726,8.899,0.688,8.926,0.655,8.957L0.997,9.321z    M0.501,18.946h-0.5H0.501z M5.575,8.988h0.5c0-0.275-0.224-0.5-0.5-0.5V8.988z"></path>
</g>
</svg>
