<?xml version="1.0" encoding="UTF-8"?>
<!-- Generator: Adobe Illustrator 16.0.0, SVG Export Plug-In . SVG Version: 6.00 Build 0)  -->
<svg xmlns="http://www.w3.org/2000/svg" xmlns:xlink="http://www.w3.org/1999/xlink" version="1.1" id="Layer_1" x="0px" y="0px" width="20.341px" height="19.345px" viewBox="0 0 20.341 19.345" xml:space="preserve">
<g>
	<defs>
		<path id="SVGID_1_" d="M17.23,5.368c-0.009,0.01-0.008,0.024,0.002,0.033l2.153,1.865c0.01,0.009,0.024,0.008,0.033-0.002    l0.568-0.656c0.523-0.604,0.458-1.519-0.146-2.042c-0.604-0.524-1.519-0.459-2.042,0.146L17.23,5.368z"></path>
	</defs>
	<clipPath id="SVGID_2_">
		<use xlink:href="#SVGID_1_" overflow="visible"></use>
	</clipPath>
	<path clip-path="url(#SVGID_2_)" fill="#AF0000" d="M16.577,6.157c-0.427-0.37-0.473-1.017-0.103-1.443l1.511,1.31   c0.354-0.408,0.31-1.024-0.099-1.378L16.577,6.157z M20.041,6.512c-0.408-0.354-1.024-0.31-1.378,0.099l1.512,1.31   c-0.37,0.427-1.017,0.473-1.443,0.103L20.041,6.512z M19.231,5.954c0.162-0.188,0.142-0.47-0.045-0.632l1.31-1.512   c1.021,0.885,1.132,2.432,0.247,3.453L19.231,5.954z M19.187,5.322c-0.188-0.162-0.471-0.143-0.632,0.045l-1.512-1.31   c0.885-1.021,2.431-1.133,3.453-0.247L19.187,5.322z M18.555,5.367l-0.569,0.656l-1.511-1.31l0.568-0.656L18.555,5.367z    M18.663,6.61l0.568-0.656l1.512,1.31L20.175,7.92L18.663,6.61z M17.887,4.646l2.154,1.866l-1.31,1.511l-2.154-1.865L17.887,4.646z   "></path>
</g>
<g>
	<defs>
		<path id="SVGID_3_" d="M9.409,14.398c-0.181,0.209-0.158,0.524,0.051,0.705l1.433,1.242c0.209,0.181,0.524,0.158,0.705-0.051    l7.15-8.252c0.181-0.209,0.158-0.524-0.051-0.705l-1.433-1.241c-0.209-0.182-0.524-0.159-0.705,0.05L9.409,14.398z"></path>
	</defs>
	<clipPath id="SVGID_4_">
		<use xlink:href="#SVGID_3_" overflow="visible"></use>
	</clipPath>
	<path clip-path="url(#SVGID_4_)" fill="#AF0000" d="M8.805,15.86c-0.626-0.543-0.693-1.49-0.151-2.116l1.512,1.31   c0.181-0.209,0.158-0.524-0.05-0.705L8.805,15.86z M11.548,15.59c-0.209-0.181-0.524-0.158-0.705,0.051l1.511,1.31   c-0.542,0.626-1.489,0.693-2.115,0.151L11.548,15.59z M17.992,7.389c-0.181,0.209-0.158,0.524,0.051,0.705l1.31-1.512   c0.626,0.543,0.693,1.49,0.151,2.116L17.992,7.389z M16.609,6.853c0.209,0.181,0.524,0.158,0.706-0.051l-1.512-1.31   c0.542-0.626,1.489-0.693,2.115-0.151L16.609,6.853z M17.315,6.802l-7.15,8.252l-1.512-1.31l7.15-8.252L17.315,6.802z    M18.043,8.094l-1.434-1.241l1.31-1.512l1.434,1.241L18.043,8.094z M10.843,15.641l7.149-8.252l1.512,1.31l-7.15,8.252   L10.843,15.641z M10.115,14.349l1.433,1.241l-1.31,1.512L8.805,15.86L10.115,14.349z"></path>
</g>
<g>
	<defs>
		<path id="SVGID_5_" d="M0,1c0-0.553,0.447-1,1-1h9.459c0.27,0,0.527,0.108,0.715,0.302l2.444,2.505l2.459,2.563    c0.179,0.187,0.278,0.435,0.278,0.692v12.282c0,0.552-0.447,1-1,1H1c-0.553,0-1-0.448-1-1V1z"></path>
	</defs>
	<clipPath id="SVGID_6_">
		<use xlink:href="#SVGID_5_" overflow="visible"></use>
	</clipPath>
	<path clip-path="url(#SVGID_6_)" d="M1,1L1,1v-2c-1.104,0-2,0.896-2,2H1z M15.355,6.063L15.355,6.063h2   c0-0.517-0.199-1.013-0.557-1.385L15.355,6.063z M15.355,20.345c1.104,0,2-0.896,2-2h-2V20.345z M1,18.345L1,18.345h-2   c0,1.104,0.896,2,2,2V18.345z M10.459,1L10.459,1l1.431-1.396C11.514-0.782,10.997-1,10.459-1V1z M15.355,6.063v12.281h2V6.063   H15.355z M12.896,3.499l2.459,2.564l1.443-1.385L14.34,2.115L12.896,3.499z M10.459,1l2.443,2.505l1.432-1.396L11.89-0.396   L10.459,1z M1,1h9.459v-2H1V1z M1,18.345V1h-2v17.345H1z M15.355,18.345H1v2h14.355V18.345z M16.077,5.371l0.722-0.692   L16.077,5.371z M11.174,0.302l0.716-0.698L11.174,0.302z M13.618,2.807l0.722-0.691l-0.006-0.007L13.618,2.807z"></path>
</g>
<g>
	<defs>
		<path id="SVGID_7_" d="M11.968,5.585c-0.56,0.01-1.018-0.441-1.018-1V0.07l5.26,5.44L11.968,5.585z"></path>
	</defs>
	<clipPath id="SVGID_8_">
		<use xlink:href="#SVGID_7_" overflow="visible"></use>
	</clipPath>
	<path clip-path="url(#SVGID_8_)" d="M9.95,4.585c0,1.118,0.917,2.02,2.035,2l-0.035-2H9.95z M16.192,4.511L11.95,4.585l0.035,2   l4.242-0.074L16.192,4.511z M10.231,0.766l5.26,5.44l1.438-1.391l-5.26-5.439L10.231,0.766z M11.95,4.585V0.07h-2v4.515H11.95z    M16.21,5.511l0.018,1l2.302-0.04l-1.601-1.655L16.21,5.511z M10.95,0.07l0.719-0.694L9.95-2.402V0.07H10.95z"></path>
</g>
<path d="M1.854,11.946h6.094v-1H1.854V11.946z M7.947,11.946c0.276,0,0.5-0.224,0.5-0.5c0-0.275-0.224-0.5-0.5-0.5V11.946z   M1.854,10.946c-0.276,0-0.5,0.225-0.5,0.5c0,0.276,0.224,0.5,0.5,0.5V10.946z"></path>
<path d="M1.854,13.952h5.643v-1H1.854V13.952z M7.496,13.952c0.275,0,0.5-0.224,0.5-0.5c0-0.275-0.225-0.5-0.5-0.5V13.952z   M1.854,12.952c-0.276,0-0.5,0.225-0.5,0.5c0,0.276,0.224,0.5,0.5,0.5V12.952z"></path>
<path d="M1.854,15.919h4.725v-1H1.854V15.919z M6.578,15.919c0.276,0,0.5-0.224,0.5-0.5c0-0.275-0.224-0.5-0.5-0.5V15.919z   M1.854,14.919c-0.276,0-0.5,0.225-0.5,0.5c0,0.276,0.224,0.5,0.5,0.5V14.919z"></path>
<g>
	<defs>
		<path id="SVGID_9_" d="M8.876,18.016c-0.393,0.189-0.822-0.181-0.694-0.597l0.499-1.625c0.106-0.344,0.531-0.467,0.805-0.231    l1.032,0.888c0.273,0.235,0.215,0.674-0.109,0.83L8.876,18.016z"></path>
	</defs>
	<clipPath id="SVGID_10_">
		<use xlink:href="#SVGID_9_" overflow="visible"></use>
	</clipPath>
	<path clip-path="url(#SVGID_10_)" fill="#AF0000" d="M7.226,17.125c-0.384,1.25,0.904,2.359,2.084,1.793l-0.866-1.803   c0.393-0.189,0.822,0.181,0.694,0.598L7.226,17.125z M9.637,16.089c-0.105,0.345-0.53,0.467-0.804,0.231l1.305-1.516   c-0.82-0.705-2.095-0.338-2.412,0.696L9.637,16.089z M9.865,17.209c-0.273-0.235-0.216-0.674,0.109-0.83l0.866,1.804   c0.975-0.469,1.148-1.784,0.329-2.489L9.865,17.209z M9.975,16.379l-1.531,0.736l0.866,1.803l1.531-0.735L9.975,16.379z    M8.833,16.32l1.032,0.889l1.305-1.516l-1.032-0.889L8.833,16.32z M9.138,17.713l0.499-1.624l-1.911-0.588l-0.5,1.624L9.138,17.713   z"></path>
</g>
<polygon fill="#AF0000" points="15.353,7.535 16.354,6.417 16.354,10.813 15.353,11.981 "></polygon>
<polygon fill="#FFFFFF" points="15.304,9.118 16.402,7.864 16.402,9.225 15.344,10.438 "></polygon>
<path fill="#AF0000" d="M1.199,5.455l1.444,1.444l0.707-0.707L1.906,4.748L1.199,5.455z M2.644,3.304L1.199,4.748l0.707,0.707  l1.444-1.443L2.644,3.304z M2.644,6.899c0.195,0.195,0.512,0.195,0.707,0s0.195-0.512,0-0.707L2.644,6.899z M1.553,5.102  L1.199,4.748c-0.195,0.195-0.195,0.512,0,0.707L1.553,5.102z M3.351,4.012c0.195-0.195,0.195-0.513,0-0.708  c-0.195-0.194-0.512-0.194-0.707,0L3.351,4.012z"></path>
<path fill="#AF0000" d="M9.382,4.748L7.938,6.192l0.707,0.707l1.444-1.444L9.382,4.748z M7.938,4.012l1.444,1.443l0.707-0.707  L8.645,3.304L7.938,4.012z M7.938,6.192c-0.195,0.195-0.195,0.512,0,0.707s0.512,0.195,0.707,0L7.938,6.192z M9.735,5.102  l0.354,0.354c0.195-0.195,0.195-0.512,0-0.707L9.735,5.102z M8.645,3.304c-0.195-0.194-0.512-0.194-0.707,0  c-0.195,0.195-0.195,0.513,0,0.708L8.645,3.304z"></path>
<path fill="#AF0000" d="M5.296,7.229l1.455-4l-0.94-0.341l-1.454,4L5.296,7.229z M6.751,3.229c0.094-0.259-0.04-0.546-0.3-0.641  c-0.259-0.094-0.546,0.04-0.641,0.3L6.751,3.229z M4.356,6.888C4.262,7.146,4.396,7.434,4.655,7.528  c0.26,0.094,0.546-0.04,0.641-0.3L4.356,6.888z"></path>
</svg>
