<?xml version="1.0" encoding="UTF-8"?>
<!-- Generator: Adobe Illustrator 16.0.0, SVG Export Plug-In . SVG Version: 6.00 Build 0)  -->
<svg xmlns="http://www.w3.org/2000/svg" xmlns:xlink="http://www.w3.org/1999/xlink" version="1.1" id="Layer_1" x="0px" y="0px" width="23px" height="27px" viewBox="0 0 23 27" xml:space="preserve">
<path d="M6,21.299V26.5h1v-5.201H6z M1.812,17.697c1.101,1.722,2.641,3.119,4.461,4.048l0.455-0.891  c-1.662-0.848-3.068-2.124-4.074-3.696L1.812,17.697z M0.009,11.948c0.079,2.042,0.701,4.026,1.803,5.749l0.842-0.539  c-1.005-1.572-1.573-3.384-1.646-5.249L0.009,11.948z M1.359,6.076c-0.964,1.803-1.43,3.829-1.351,5.872l0.999-0.039  c-0.072-1.865,0.354-3.715,1.233-5.361L1.359,6.076z M5.493,1.694c-1.743,1.067-3.17,2.58-4.134,4.382l0.882,0.472  c0.88-1.646,2.184-3.026,3.774-4.001L5.493,1.694z M11.275,0.002c-2.043,0.04-4.039,0.623-5.782,1.691l0.522,0.853  c1.592-0.975,3.414-1.508,5.279-1.544L11.275,0.002z M17.119,1.466c-1.783-0.999-3.8-1.504-5.844-1.464l0.02,1  c1.866-0.037,3.708,0.425,5.336,1.337L17.119,1.466z M21.421,5.684c-1.033-1.763-2.519-3.219-4.302-4.218l-0.488,0.873  c1.628,0.911,2.983,2.241,3.928,3.851L21.421,5.684z M23,11.499c0-2.044-0.546-4.051-1.579-5.814L20.559,6.19  C21.502,7.8,22,9.632,22,11.499H23z M23,19.5v-8.001h-1V19.5H23z M22.268,21.267C22.736,20.798,23,20.163,23,19.5h-1  c0,0.397-0.158,0.779-0.439,1.061L22.268,21.267z M20.5,22c0.663,0,1.299-0.264,1.768-0.732l-0.707-0.707  C21.279,20.841,20.897,21,20.5,21V22z M16.5,22h4v-1h-4V22z M17,26.5V21.5h-1V26.5H17z M6,26.5C6,26.776,6.224,27,6.5,27  S7,26.776,7,26.5H6z M6.5,21.299H7c0-0.188-0.105-0.359-0.272-0.445L6.5,21.299z M22.5,11.499H23H22.5z M16.5,21.5V21  c-0.276,0-0.5,0.224-0.5,0.5H16.5z M16,26.5c0,0.275,0.224,0.5,0.5,0.5s0.5-0.225,0.5-0.5H16z"></path>
<path fill="#AF0000" d="M14.607,15.202c0.407-0.648,0.628-1.397,0.638-2.164l-1-0.012c-0.008,0.582-0.175,1.151-0.484,1.645  L14.607,15.202z M12.936,16.716c0.686-0.342,1.265-0.865,1.672-1.515l-0.847-0.531c-0.31,0.493-0.75,0.891-1.271,1.15L12.936,16.716  z M13.213,18.102v-1.833h-1v1.833H13.213z M12.938,18.742c0.17-0.165,0.268-0.391,0.274-0.627l-1-0.025  c0-0.024,0.011-0.047,0.027-0.063L12.938,18.742z M12.304,19c0.237,0,0.465-0.092,0.635-0.258l-0.698-0.716  C12.258,18.009,12.28,18,12.305,18L12.304,19z M9.853,19h2.451v-1H9.853V19z M9.219,18.742C9.389,18.908,9.616,19,9.853,19v-1  c0.024,0,0.047,0.01,0.063,0.026L9.219,18.742z M8.944,18.115c0.006,0.236,0.104,0.462,0.274,0.627l0.697-0.716  c0.018,0.017,0.027,0.039,0.028,0.063L8.944,18.115z M8.944,16.3v1.802h1V16.3H8.944z M7.587,15.291  c0.405,0.623,0.97,1.126,1.635,1.457l0.445-0.896c-0.505-0.251-0.935-0.634-1.242-1.106L7.587,15.291z M6.916,13.207  c0.034,0.742,0.266,1.462,0.671,2.084l0.838-0.545c-0.308-0.474-0.484-1.021-0.51-1.584L6.916,13.207z M7.396,11.07  c-0.348,0.657-0.513,1.395-0.479,2.137l0.999-0.045c-0.025-0.564,0.101-1.125,0.364-1.624L7.396,11.07z M8.892,9.471  C8.26,9.862,7.743,10.414,7.396,11.07l0.884,0.468c0.264-0.499,0.656-0.919,1.138-1.215L8.892,9.471z M10.992,8.852  c-0.743,0.016-1.468,0.229-2.101,0.619l0.525,0.852c0.48-0.296,1.031-0.459,1.596-0.471L10.992,8.852z M13.116,9.384  c-0.648-0.364-1.382-0.547-2.124-0.532l0.021,1c0.564-0.012,1.122,0.128,1.614,0.404L13.116,9.384z M14.678,10.918  c-0.375-0.642-0.914-1.171-1.562-1.534l-0.489,0.872c0.492,0.275,0.902,0.679,1.187,1.166L14.678,10.918z M15.245,13.034  c0.003-0.743-0.193-1.474-0.567-2.115l-0.864,0.504c0.284,0.488,0.434,1.043,0.432,1.607L15.245,13.034z M12.713,16.269  l-0.223-0.448c-0.17,0.085-0.277,0.258-0.277,0.448H12.713z M12.713,18.102l0.5,0.013v-0.013H12.713z M12.304,18.5l0.001-0.5h-0.001  V18.5z M9.853,18.5V18l0,0V18.5z M9.444,18.102h-0.5v0.013L9.444,18.102z M9.444,16.3h0.5c0-0.19-0.107-0.363-0.277-0.448  L9.444,16.3z"></path>
<path fill="#AF0000" d="M10.578,5.5v1.572h1V5.5H10.578z M10.578,7.072c0,0.275,0.224,0.5,0.5,0.5s0.5-0.225,0.5-0.5H10.578z   M11.578,5.5c0-0.275-0.224-0.5-0.5-0.5s-0.5,0.225-0.5,0.5H11.578z"></path>
<path fill="#AF0000" d="M14.913,6.646l-1.11,1.121l0.711,0.704l1.11-1.121L14.913,6.646z M13.803,7.767  c-0.194,0.196-0.192,0.513,0.004,0.707c0.195,0.194,0.513,0.192,0.707-0.003L13.803,7.767z M15.624,7.35  c0.194-0.196,0.192-0.513-0.004-0.707s-0.513-0.193-0.707,0.003L15.624,7.35z"></path>
<path fill="#AF0000" d="M17.657,9.745h-1.571v1h1.571V9.745z M16.086,9.745c-0.276,0-0.5,0.225-0.5,0.5c0,0.276,0.224,0.5,0.5,0.5  V9.745z M17.657,10.745c0.276,0,0.5-0.224,0.5-0.5c0-0.275-0.224-0.5-0.5-0.5V10.745z"></path>
<path fill="#AF0000" d="M6.533,7.35l1.11,1.121l0.711-0.704l-1.11-1.121L6.533,7.35z M7.644,8.471  c0.194,0.195,0.511,0.197,0.707,0.003s0.198-0.511,0.004-0.707L7.644,8.471z M7.244,6.646C7.05,6.45,6.732,6.449,6.537,6.643  C6.341,6.837,6.339,7.154,6.533,7.35L7.244,6.646z"></path>
<path fill="#AF0000" d="M4.5,10.745h1.571v-1H4.5V10.745z M6.071,10.745c0.276,0,0.5-0.224,0.5-0.5c0-0.275-0.224-0.5-0.5-0.5  V10.745z M4.5,9.745c-0.276,0-0.5,0.225-0.5,0.5c0,0.276,0.224,0.5,0.5,0.5V9.745z"></path>
</svg>
