<?xml version="1.0" encoding="UTF-8"?>
<!-- Generator: Adobe Illustrator 16.0.0, SVG Export Plug-In . SVG Version: 6.00 Build 0)  -->
<svg xmlns="http://www.w3.org/2000/svg" xmlns:xlink="http://www.w3.org/1999/xlink" version="1.1" id="Layer_1" x="0px" y="0px" width="384.054px" height="169.873px" viewBox="0 0 384.054 169.873" xml:space="preserve">
<path fill-rule="evenodd" clip-rule="evenodd" fill="#020202" d="M384.054,95.021c-1.664,2.715-1.449,5.899-2.119,8.851  c-9.053,39.846-45.698,67.637-86.463,65.751c-26.318-1.217-48.645-11.859-68.635-28.234c-4.44-3.637-8.627-7.6-12.771-11.577  c-6.052-5.809-6.666-12.855-1.739-17.735c4.931-4.885,11.564-4.292,17.491,1.59c12.072,11.982,25.329,22.329,41.483,28.185  c23.515,8.524,46.114,7.674,66.616-8.232c19.563-15.179,28.308-41.137,21.201-65.13c-7.445-25.132-24.512-40.519-50.492-44.725  c-22.346-3.617-42.098,3.93-60.102,16.666c-17.147,12.129-30.825,27.694-42.774,44.773c-13.061,18.669-26.493,36.97-43.713,52.13  c-17.343,15.267-36.729,26.394-59.733,30.891c-47.259,9.24-92.418-21.252-101.007-68.438C1.054,98.451,1.443,96.769,0,95.771  c0-7.001,0-14.002,0-21.003c1.627-2.587,1.44-5.642,2.081-8.467C11.779,23.506,52.705-4.76,96.246,0.937  c28.262,3.699,51.051,17.568,71.208,36.75c1.086,1.033,2.145,2.097,3.206,3.157c5.313,5.31,5.806,12.243,1.209,16.949  c-4.716,4.828-11.526,4.564-16.928-0.785c-7.567-7.495-15.595-14.409-24.631-20.093c-14.822-9.321-30.794-14.482-48.5-13.964  C52.575,23.81,26.4,47.751,23.189,76.809c-3.816,34.536,17.721,63.61,51.975,69.468c15.606,2.67,30.541-0.63,44.715-7.447  c18.395-8.848,32.842-22.501,45.942-37.802c10.418-12.17,18.752-25.88,28.583-38.479c15.027-19.261,31.915-36.545,53.547-48.431  c25.148-13.818,51.759-18.855,79.308-8.919c31.947,11.521,50.43,34.937,56.035,68.46c0.112,0.668-0.258,1.554,0.761,1.859  C384.054,82.019,384.054,88.52,384.054,95.021z"></path>
<path fill-rule="evenodd" clip-rule="evenodd" fill="#AF0000" d="M384.054,95.021c0-6.501,0-13.002,0-19.503  c-1.019-0.306-0.648-1.191-0.761-1.859c-5.605-33.523-24.088-56.938-56.035-68.46c-27.549-9.936-54.159-4.899-79.308,8.919  c-21.632,11.886-38.52,29.17-53.547,48.431c-4.758,6.099-9.167,12.457-13.63,18.774c0.084,11.497,0.886,23.272,2.04,34.463  c8.165-9.752,15.609-20.109,22.937-30.583c11.949-17.079,25.627-32.645,42.774-44.773c18.004-12.736,37.756-20.283,60.102-16.666  c25.98,4.206,43.047,19.593,50.492,44.725c7.106,23.993-1.638,49.951-21.201,65.13c-20.502,15.906-43.102,16.757-66.616,8.232  c-16.154-5.855-29.411-16.202-41.483-28.185c-5.927-5.882-12.561-6.475-17.491-1.59c-4.927,4.88-4.313,11.927,1.739,17.735  c4.145,3.978,8.331,7.94,12.771,11.577c19.99,16.375,42.316,27.018,68.635,28.234c40.765,1.886,77.41-25.905,86.463-65.751  C382.604,100.92,382.39,97.735,384.054,95.021z"></path>
</svg>
