<svg id="Group_1186" data-name="Group 1186" xmlns="http://www.w3.org/2000/svg" width="80" height="80" viewBox="0 0 80 80">
  <g id="Group_11910" data-name="Group 11910">
    <rect id="Rectangle" width="80" height="80" rx="40" fill="#22577a" opacity="0.1"/>
    <g id="Group_1200" data-name="Group 1200" transform="translate(-52.457 -2850.139)">
      <g id="graduation-hat" transform="translate(73 2871)">
        <rect id="Rectangle_590" data-name="Rectangle 590" width="38" height="38" transform="translate(0.457 0.138)" fill="none" stroke="#22577a" stroke-width="1.5" opacity="0"/>
        <path id="Path_8413" data-name="Path 8413" d="M221,540.43v8.04c0,4.95-3.676,8.963-8.212,8.963h-7.871c-4.535,0-8.212-4.013-8.212-8.963v-8.04" transform="translate(-189.798 -523.192)" fill="none" stroke="#22577a" stroke-width="1.5"/>
        <path id="Path_8414" data-name="Path 8414" d="M107.973,128.051l-9.464,6.481a2.493,2.493,0,0,0,0,3.94l9.464,6.48a8.467,8.467,0,0,0,9.76,0l9.464-6.48a2.492,2.492,0,0,0,0-3.94l-9.463-6.481A8.468,8.468,0,0,0,107.973,128.051Z" transform="translate(-93.794 -122.467)" fill="none" stroke="#22577a" stroke-width="1.5"/>
        <path id="Path_8415" data-name="Path 8415" d="M577.55,440l11.727.306a3.68,3.68,0,0,1,3.584,3.678v7.722" transform="translate(-558.49 -425.965)" fill="none" stroke="#22577a" stroke-width="1.5"/>
        <rect id="Rectangle_591" data-name="Rectangle 591" width="2.865" height="5.55" transform="translate(32.938 25.74)" fill="none" stroke="#22577a" stroke-width="1.5"/>
      </g>
    </g>
  </g>
</svg>
