<?xml version="1.0" encoding="UTF-8"?>
<!-- Generator: Adobe Illustrator 16.0.0, SVG Export Plug-In . SVG Version: 6.00 Build 0)  -->
<svg xmlns="http://www.w3.org/2000/svg" xmlns:xlink="http://www.w3.org/1999/xlink" version="1.1" id="Layer_1" x="0px" y="0px" width="20px" height="20.001px" viewBox="0 0 20 20.001" xml:space="preserve">
<path fill="#AF0000" d="M5.981,9.04c0.128,0,0.231,0.103,0.231,0.23h1c0-0.68-0.552-1.231-1.231-1.231V9.04z M5.75,9.271  c0-0.128,0.104-0.23,0.23-0.23V8.039c-0.68,0-1.23,0.552-1.23,1.231H5.75z M5.981,9.501c-0.127,0-0.23-0.104-0.23-0.23h-1  c0,0.68,0.551,1.23,1.23,1.23V9.501z M6.212,9.271c0,0.127-0.104,0.23-0.231,0.23v1c0.68,0,1.231-0.551,1.231-1.23H6.212z"></path>
<path fill="#AF0000" d="M10.733,9.04c0.128,0,0.231,0.103,0.231,0.23h1c0-0.68-0.552-1.231-1.231-1.231V9.04z M10.502,9.271  c0-0.128,0.104-0.23,0.23-0.23V8.039c-0.68,0-1.23,0.552-1.23,1.231H10.502z M10.733,9.501c-0.127,0-0.23-0.104-0.23-0.23h-1  c0,0.68,0.551,1.23,1.23,1.23V9.501z M10.964,9.271c0,0.127-0.104,0.23-0.231,0.23v1c0.68,0,1.231-0.551,1.231-1.23H10.964z"></path>
<path fill="#AF0000" d="M15.481,9.04c0.128,0,0.231,0.103,0.231,0.23h1c0-0.68-0.552-1.231-1.231-1.231V9.04z M15.25,9.271  c0-0.128,0.104-0.23,0.23-0.23V8.039c-0.68,0-1.23,0.552-1.23,1.231H15.25z M15.481,9.501c-0.127,0-0.23-0.104-0.23-0.23h-1  c0,0.68,0.551,1.23,1.23,1.23V9.501z M15.712,9.271c0,0.127-0.104,0.23-0.231,0.23v1c0.68,0,1.231-0.551,1.231-1.23H15.712z"></path>
<path d="M18.039,17.539H6.346v1h11.692V17.539z M18.719,17.257c-0.181,0.181-0.426,0.282-0.681,0.282v1  c0.521,0,1.02-0.207,1.388-0.574L18.719,17.257z M19,16.577c0,0.255-0.102,0.5-0.281,0.68l0.707,0.708  C19.793,17.597,20,17.098,20,16.577H19z M19,1.962v14.615h1V1.962H19z M18.719,1.282C18.899,1.463,19,1.707,19,1.962h1  c0-0.521-0.207-1.02-0.574-1.387L18.719,1.282z M18.039,1c0.255,0,0.5,0.102,0.681,0.282l0.707-0.707  C19.058,0.207,18.559,0,18.039,0V1z M3.423,1h14.615V0H3.423V1z M2.744,1.282C2.924,1.102,3.168,1,3.423,1V0  C2.903,0,2.405,0.207,2.037,0.575L2.744,1.282z M2.462,1.962c0-0.255,0.101-0.499,0.281-0.68L2.037,0.575  C1.668,0.942,1.462,1.441,1.462,1.962H2.462z M2.462,15.116V1.962h-1v13.154H2.462z M0.975,19.658l1.461-4.384l-0.948-0.316  l-1.462,4.385L0.975,19.658z M6.225,17.554l-5.846,1.462l0.242,0.97l5.847-1.461L6.225,17.554z M3.423,0.5V0V0.5z M1.962,15.116  l0.474,0.158c0.018-0.052,0.026-0.104,0.026-0.158H1.962z M0.5,19.5l-0.475-0.157c-0.058,0.173-0.017,0.363,0.107,0.497  s0.312,0.19,0.488,0.146L0.5,19.5z M6.346,18.039v-0.5c-0.04,0-0.081,0.005-0.121,0.015L6.346,18.039z"></path>
</svg>
