<?xml version="1.0" encoding="UTF-8"?>
<!-- Generator: Adobe Illustrator 16.0.0, SVG Export Plug-In . SVG Version: 6.00 Build 0)  -->
<svg xmlns="http://www.w3.org/2000/svg" xmlns:xlink="http://www.w3.org/1999/xlink" version="1.1" id="Layer_1" x="0px" y="0px" width="20.267px" height="21.792px" viewBox="0 0 20.267 21.792" xml:space="preserve">
<g>
	<path d="M12.269,19.311c0.11-0.028,0.207,0.045,0.227,0.135l-0.977,0.216c0.098,0.439,0.539,0.735,0.997,0.618L12.269,19.311z    M0.029,7.593C-0.096,8.049,0.192,8.497,0.632,8.6l0.23-0.973c0.09,0.021,0.161,0.118,0.132,0.229L0.029,7.593z M0.632,8.6   c0.446,0.106,0.877-0.172,0.993-0.593L0.66,7.742c0.021-0.075,0.104-0.138,0.202-0.114L0.632,8.6z M12.128,18.677   c-0.423,0.109-0.708,0.535-0.609,0.984l0.977-0.216c0.022,0.1-0.041,0.181-0.118,0.2L12.128,18.677z M15.863,16.631   c-1.057,0.984-2.341,1.687-3.735,2.046l0.249,0.969c1.557-0.401,2.989-1.186,4.168-2.282L15.863,16.631z M18.262,12.758   c-0.439,1.482-1.268,2.819-2.398,3.873l0.682,0.732c1.262-1.176,2.186-2.668,2.676-4.321L18.262,12.758z M18.361,8.205   c0.374,1.499,0.34,3.072-0.1,4.554l0.959,0.284c0.49-1.653,0.528-3.407,0.11-5.08L18.361,8.205z M16.133,4.231   c1.084,1.102,1.854,2.474,2.229,3.974l0.97-0.242c-0.418-1.674-1.275-3.204-2.485-4.433L16.133,4.231z M12.195,1.94   c1.493,0.398,2.854,1.189,3.938,2.291l0.713-0.701c-1.21-1.229-2.727-2.112-4.393-2.556L12.195,1.94z M7.64,1.967   c1.489-0.416,3.062-0.426,4.556-0.027l0.258-0.966c-1.667-0.444-3.422-0.434-5.082,0.03L7.64,1.967z M3.729,4.304   C4.801,3.19,6.151,2.383,7.64,1.967L7.371,1.004C5.71,1.468,4.204,2.368,3.009,3.612L3.729,4.304z M1.625,8.007   c0.381-1.389,1.104-2.662,2.104-3.703L3.009,3.612c-1.116,1.16-1.923,2.581-2.349,4.13L1.625,8.007z M2.541,3.163   c-1.196,1.244-2.06,2.769-2.512,4.431l0.965,0.263c0.408-1.501,1.188-2.877,2.269-4.001L2.541,3.163z M7.196,0.379   c-1.772,0.495-3.38,1.456-4.655,2.783l0.722,0.692C4.414,2.658,5.865,1.79,7.466,1.342L7.196,0.379z M12.62,0.347   c-1.778-0.474-3.651-0.463-5.424,0.032l0.27,0.963c1.6-0.446,3.291-0.456,4.896-0.028L12.62,0.347z M17.308,3.075   c-1.291-1.312-2.91-2.253-4.688-2.728l-0.258,0.967c1.605,0.428,3.067,1.278,4.232,2.462L17.308,3.075z M19.96,7.805   c-0.445-1.785-1.361-3.419-2.652-4.73l-0.713,0.701c1.166,1.185,1.993,2.659,2.396,4.271L19.96,7.805z M19.843,13.227   c0.522-1.765,0.563-3.637,0.117-5.422l-0.97,0.242c0.402,1.612,0.365,3.303-0.106,4.896L19.843,13.227z M16.986,17.837   c1.347-1.254,2.333-2.846,2.856-4.61l-0.959-0.284c-0.473,1.593-1.363,3.03-2.579,4.163L16.986,17.837z M12.516,20.28   c1.67-0.427,3.207-1.266,4.471-2.442l-0.682-0.731c-1.141,1.063-2.529,1.819-4.036,2.205L12.516,20.28z M12.393,19.795l0.123,0.484   L12.393,19.795z M1.143,7.875L0.66,7.742L1.143,7.875z M12.253,19.162l0.124,0.484L12.253,19.162z M16.204,16.998l-0.341-0.366   L16.204,16.998z M18.741,12.901l-0.479-0.143L18.741,12.901z M18.847,8.083l-0.485,0.121L18.847,8.083z M12.324,1.457L12.195,1.94   L12.324,1.457z M3.369,3.958l0.36,0.347L3.369,3.958z M2.901,3.508l0.361,0.347L2.901,3.508z M7.331,0.861l0.135,0.481L7.331,0.861   z M12.491,0.831l-0.129,0.483L12.491,0.831z M16.951,3.425l-0.356,0.351L16.951,3.425z M19.476,7.926l0.484-0.121L19.476,7.926z    M19.363,13.085l-0.479-0.143L19.363,13.085z M16.646,17.472l-0.341-0.366L16.646,17.472z"></path>
	<path fill="#AF0000" d="M11.005,11.062l1.883-2.667v2.667H11.005z M12.86,12.742h0.63v-1.127h0.7v-0.553h-0.7V7.73h-0.763   l-2.457,3.402v0.482h2.59V12.742z M6.321,12.686h3.366v-0.532H7.28c0.902-0.734,2.261-1.806,2.261-3.065   c0-0.938-0.616-1.498-1.568-1.498c-0.91,0-1.589,0.56-1.631,1.638h0.616c0.027-0.637,0.364-1.092,1.021-1.092   c0.687,0,0.932,0.42,0.932,0.979c0,1.036-1.261,2.045-2.59,3.115V12.686z"></path>
	<g>
		<defs>
			<path id="SVGID_1_" d="M9.233,19.13c-0.228-0.124-1.36-0.713-1.57-0.793c-0.211-0.084-0.365-0.124-0.518,0.124     c-0.154,0.246-0.592,0.793-0.729,0.959c-0.134,0.164-0.27,0.184-0.496,0.063c-1.352-0.718-2.238-1.28-3.128-2.904     c-0.236-0.432,0.235-0.401,0.676-1.334c0.074-0.164,0.037-0.303-0.021-0.427s-0.517-1.325-0.709-1.814     c-0.186-0.477-0.377-0.41-0.517-0.419c-0.134-0.009-0.286-0.009-0.44-0.009s-0.402,0.062-0.613,0.304     c-0.21,0.246-0.805,0.837-0.805,2.038c0,1.2,0.823,2.363,0.937,2.527c0.116,0.164,1.62,2.627,3.929,3.688     c1.459,0.669,2.031,0.727,2.761,0.611c0.444-0.071,1.359-0.59,1.549-1.163c0.19-0.571,0.19-1.062,0.134-1.163     C9.614,19.31,9.46,19.248,9.233,19.13z"></path>
		</defs>
		<clipPath id="SVGID_2_">
			<use xlink:href="#SVGID_1_" overflow="visible"></use>
		</clipPath>
		<path clip-path="url(#SVGID_2_)" fill="#AF0000" d="M10.559,18.958c-0.162-0.313-0.422-0.475-0.534-0.541    c-0.105-0.063-0.271-0.143-0.332-0.175l-0.918,1.776c0.032,0.018,0.063,0.033,0.091,0.047c0.028,0.015,0.05,0.024,0.071,0.036    c0.045,0.022,0.063,0.032,0.07,0.037c0.009,0.005-0.019-0.01-0.059-0.045c-0.043-0.038-0.109-0.108-0.165-0.215L10.559,18.958z     M10.486,20.897c0.121-0.363,0.184-0.708,0.207-0.992c0.012-0.142,0.014-0.282,0.005-0.413c-0.006-0.077-0.023-0.323-0.152-0.557    l-1.75,0.968c-0.035-0.064-0.056-0.118-0.065-0.149c-0.011-0.034-0.018-0.061-0.021-0.076c-0.006-0.03-0.007-0.047-0.007-0.043    c0.001,0.008,0.002,0.044-0.003,0.109c-0.011,0.129-0.043,0.315-0.111,0.523L10.486,20.897z M8.146,22.732    c0.419-0.066,0.897-0.296,1.276-0.554c0.362-0.247,0.865-0.677,1.065-1.282l-1.899-0.628C8.6,20.234,8.601,20.254,8.54,20.32    c-0.056,0.062-0.14,0.134-0.245,0.206c-0.104,0.071-0.215,0.132-0.312,0.175c-0.105,0.047-0.158,0.058-0.152,0.057L8.146,22.732z     M4.811,22.042c0.754,0.346,1.345,0.564,1.874,0.671c0.561,0.113,1.01,0.09,1.459,0.02l-0.312-1.976    c-0.28,0.044-0.481,0.05-0.754-0.005c-0.304-0.061-0.729-0.205-1.435-0.528L4.811,22.042z M0.484,18.026    c-0.007-0.009-0.006-0.01,0.018,0.026c0.017,0.026,0.042,0.064,0.072,0.11c0.062,0.092,0.145,0.214,0.249,0.36    c0.209,0.292,0.501,0.676,0.868,1.092c0.725,0.82,1.786,1.814,3.118,2.428l0.835-1.817c-2.012-0.925-3.355-3.112-3.531-3.36    L0.484,18.026z M-0.638,14.917c0,0.813,0.273,1.559,0.523,2.083c0.256,0.537,0.529,0.924,0.589,1.011l1.648-1.132    c-0.054-0.077-0.248-0.354-0.433-0.739c-0.189-0.398-0.328-0.834-0.328-1.223H-0.638z M0.407,12.229    c-0.219,0.256-1.045,1.093-1.045,2.688h2c0-0.425,0.103-0.713,0.206-0.907c0.111-0.209,0.226-0.324,0.358-0.48L0.407,12.229z     M1.78,11.576c-0.405,0-0.942,0.16-1.367,0.646l1.508,1.314c0.002-0.002-0.009,0.01-0.035,0.021    c-0.021,0.009-0.055,0.018-0.105,0.018V11.576z M2.286,11.587c-0.173-0.012-0.36-0.012-0.506-0.012v2    c0.163,0,0.28,0.001,0.374,0.007L2.286,11.587z M3.669,12.64c-0.13-0.335-0.349-0.711-0.763-0.917    c-0.202-0.101-0.389-0.127-0.512-0.134c-0.056-0.004-0.105-0.003-0.122-0.003c-0.027,0-0.011-0.001,0.011,0.001l-0.126,1.996    c0.057,0.003,0.109,0.003,0.12,0.003c0.021,0,0.012,0-0.004-0.001c-0.042-0.003-0.143-0.014-0.257-0.07    c-0.236-0.118-0.266-0.29-0.211-0.148L3.669,12.64z M4.352,14.392c0.003,0.006-0.022-0.053-0.083-0.208    c-0.054-0.135-0.121-0.31-0.194-0.497c-0.145-0.373-0.309-0.801-0.405-1.048l-1.862,0.729c0.095,0.242,0.255,0.66,0.403,1.04    c0.134,0.347,0.283,0.731,0.332,0.835L4.352,14.392z M4.376,15.662c0.251-0.548,0.092-1.021-0.024-1.27l-1.81,0.852    c0.005,0.012-0.021-0.038-0.03-0.124c-0.01-0.102,0.008-0.205,0.046-0.29L4.376,15.662z M3.67,16.1    c0.003,0.006,0.103,0.193,0.037,0.46c-0.027,0.11-0.072,0.183-0.09,0.209c-0.015,0.021-0.021,0.025,0.01-0.008    c0.043-0.05,0.181-0.196,0.313-0.37c0.142-0.187,0.29-0.419,0.433-0.719l-1.81-0.854c-0.15,0.319-0.281,0.443-0.437,0.62    c-0.061,0.068-0.276,0.301-0.36,0.641c-0.103,0.411,0.027,0.757,0.148,0.979L3.67,16.1z M6.389,18.6    c-0.67-0.355-1.143-0.632-1.553-0.986c-0.396-0.343-0.77-0.79-1.167-1.516L1.915,17.06c0.492,0.898,1.008,1.544,1.614,2.067    c0.593,0.513,1.239,0.877,1.921,1.239L6.389,18.6z M5.641,18.79c0.022-0.027,0.164-0.187,0.434-0.222    c0.229-0.03,0.364,0.059,0.317,0.034l-0.944,1.763c0.181,0.097,0.497,0.236,0.884,0.187c0.428-0.056,0.704-0.308,0.86-0.499    L5.641,18.79z M6.299,17.93c-0.047,0.075-0.166,0.236-0.314,0.429c-0.141,0.181-0.277,0.351-0.339,0.425l1.54,1.275    c0.13-0.157,0.612-0.755,0.808-1.065L6.299,17.93z M8.034,17.41c-0.076-0.03-0.399-0.174-0.776-0.127    c-0.491,0.062-0.795,0.38-0.965,0.656l1.705,1.046c-0.005,0.008-0.044,0.07-0.131,0.137c-0.099,0.075-0.224,0.129-0.36,0.146    c-0.122,0.016-0.211-0.004-0.236-0.011c-0.022-0.005-0.025-0.009,0.021,0.01L8.034,17.41z M9.712,18.253    c-0.126-0.069-0.476-0.252-0.814-0.426c-0.309-0.158-0.709-0.36-0.881-0.425l-0.708,1.87c0,0,0.064,0.028,0.216,0.103    c0.133,0.065,0.295,0.147,0.462,0.232c0.336,0.172,0.666,0.346,0.768,0.4L9.712,18.253z M9.671,19.418l-0.888,0.461l0.006,0.012    l0.007,0.012L9.671,19.418z M9.537,20.582l-0.948-0.314l-0.001,0.001L9.537,20.582z M7.988,21.745l0.155,0.988l0.002-0.001    L7.988,21.745z M5.228,21.133L4.81,22.042h0.001L5.228,21.133z M1.299,17.445l-0.824,0.566l0.005,0.007l0.005,0.008L1.299,17.445z     M1.167,12.879l-0.754-0.657l-0.006,0.007L1.167,12.879z M2.221,12.585l-0.066,0.997l0.003,0.001L2.221,12.585z M2.737,13.003    l-0.932,0.363l0.001,0.002L2.737,13.003z M3.468,15.246l0.904,0.427l0.004-0.011L3.468,15.246z M2.792,16.579l-0.878,0.479    l0.001,0.002L2.792,16.579z M5.92,19.483l0.472-0.881L6.389,18.6L5.92,19.483z M6.416,19.421l-0.771-0.639L5.641,18.79    L6.416,19.421z M7.146,18.462l0.848,0.531l0.005-0.009L7.146,18.462z M7.663,18.338l-0.371,0.928L7.3,19.27l0.009,0.003    L7.663,18.338z M9.233,19.131l-0.479,0.877l0.01,0.006l0.011,0.005L9.233,19.131z"></path>
	</g>
	<path d="M4.412,4.863C4.38,4.829,4.381,4.774,4.415,4.741l0.692,0.721c0.364-0.35,0.376-0.928,0.026-1.292L4.412,4.863z    M4.415,4.741c0.034-0.032,0.088-0.031,0.121,0.003L3.815,5.436C4.165,5.8,4.744,5.812,5.107,5.461L4.415,4.741z M4.536,4.744   l-1.13-1.176L2.686,4.26l1.13,1.176L4.536,4.744z M3.282,3.687l1.13,1.176l0.722-0.693L4.003,2.994L3.282,3.687z M3.393,4.275   l0.597-0.574L3.296,2.98L2.699,3.553L3.393,4.275z M3.643,3.34l0.36-0.347l-0.346-0.36L3.296,2.98L3.643,3.34z M3.046,3.915   L2.699,3.553L2.339,3.9l0.347,0.36L3.046,3.915z"></path>
	<path d="M9.874,2.521c0.001-0.047,0.041-0.084,0.089-0.083l-0.036,1c0.505,0.018,0.928-0.376,0.946-0.881L9.874,2.521z    M9.963,2.438c0.047,0.002,0.084,0.042,0.083,0.09l-1-0.036C9.028,2.996,9.422,3.419,9.927,3.438L9.963,2.438z M10.046,2.528   l0.059-1.63l-1-0.036l-0.059,1.63L10.046,2.528z M9.933,0.892L9.874,2.521l0.999,0.036l0.059-1.63L9.933,0.892z M9.587,1.379   l0.827,0.03l0.036-1L9.622,0.38L9.587,1.379z M10.432,0.91l0.5,0.018l0.019-0.499l-0.5-0.019L10.432,0.91z M9.604,0.88l0.018-0.5   L9.123,0.362l-0.019,0.5L9.604,0.88z"></path>
	<path d="M15.374,4.728c0.035-0.032,0.089-0.031,0.121,0.004l-0.73,0.683c0.346,0.369,0.924,0.389,1.292,0.044L15.374,4.728z    M15.495,4.732c0.033,0.034,0.031,0.089-0.004,0.121l-0.683-0.73c-0.369,0.345-0.389,0.924-0.044,1.292L15.495,4.732z    M15.491,4.853l1.191-1.113l-0.684-0.73l-1.19,1.113L15.491,4.853z M16.564,3.614l-1.19,1.114l0.683,0.73l1.191-1.114L16.564,3.614   z M15.976,3.716l0.565,0.604l0.73-0.684l-0.565-0.604L15.976,3.716z M16.906,3.979l0.342,0.365l0.365-0.342l-0.342-0.365   L16.906,3.979z M16.341,3.375l0.365-0.342l-0.342-0.365l-0.365,0.342L16.341,3.375z"></path>
	<path d="M17.76,10.147c0.048,0,0.086,0.038,0.086,0.086l-1,0.002c0.001,0.505,0.411,0.913,0.916,0.912L17.76,10.147z    M17.846,10.233c0,0.048-0.038,0.086-0.086,0.086l-0.002-1c-0.505,0.001-0.913,0.411-0.912,0.916L17.846,10.233z M17.76,10.319   l1.631-0.003l-0.002-1l-1.631,0.003L17.76,10.319z M19.391,10.144l-1.631,0.003l0.002,1l1.63-0.003L19.391,10.144z M18.89,9.817   l0.002,0.828l1-0.002L19.89,9.815L18.89,9.817z M19.392,10.644v0.5l0.5-0.001v-0.5L19.392,10.644z M19.39,9.816l0.5-0.001   l-0.001-0.5l-0.5,0.001L19.39,9.816z"></path>
	<path d="M15.541,15.688c0.033,0.035,0.032,0.089-0.003,0.122l-0.69-0.723c-0.365,0.349-0.378,0.928-0.029,1.292L15.541,15.688z    M15.538,15.81c-0.034,0.033-0.088,0.031-0.121-0.003l0.723-0.691c-0.349-0.364-0.928-0.377-1.292-0.028L15.538,15.81z    M15.417,15.807l1.127,1.179l0.723-0.691l-1.127-1.179L15.417,15.807z M16.668,16.867l-1.127-1.179l-0.723,0.691l1.127,1.179   L16.668,16.867z M16.56,16.279l-0.599,0.572l0.691,0.723l0.599-0.572L16.56,16.279z M16.307,17.212l-0.361,0.346l0.346,0.361   l0.361-0.346L16.307,17.212z M16.905,16.64l0.346,0.361l0.361-0.346l-0.346-0.361L16.905,16.64z"></path>
</g>
</svg>
